<svg width="21" height="21" viewBox="0 0 21 21" fill="none" xmlns="http://www.w3.org/2000/svg">
<path d="M10.5 0C4.70156 0 0 4.70156 0 10.5C0 16.2984 4.70156 21 10.5 21C16.2984 21 21 16.2984 21 10.5C21 4.70156 16.2984 0 10.5 0ZM10.5 19.2188C5.68594 19.2188 1.78125 15.3141 1.78125 10.5C1.78125 5.68594 5.68594 1.78125 10.5 1.78125C15.3141 1.78125 19.2188 5.68594 19.2188 10.5C19.2188 15.3141 15.3141 19.2188 10.5 19.2188Z" fill="#D5A353"/>
<path d="M9.375 6.375C9.375 6.67337 9.49353 6.95952 9.7045 7.1705C9.91548 7.38147 10.2016 7.5 10.5 7.5C10.7984 7.5 11.0845 7.38147 11.2955 7.1705C11.5065 6.95952 11.625 6.67337 11.625 6.375C11.625 6.07663 11.5065 5.79048 11.2955 5.5795C11.0845 5.36853 10.7984 5.25 10.5 5.25C10.2016 5.25 9.91548 5.36853 9.7045 5.5795C9.49353 5.79048 9.375 6.07663 9.375 6.375ZM11.0625 9H9.9375C9.83438 9 9.75 9.08438 9.75 9.1875V15.5625C9.75 15.6656 9.83438 15.75 9.9375 15.75H11.0625C11.1656 15.75 11.25 15.6656 11.25 15.5625V9.1875C11.25 9.08438 11.1656 9 11.0625 9Z" fill="#D5A353"/>
</svg>
