<svg width="146" height="215" viewBox="0 0 146 215" fill="none" xmlns="http://www.w3.org/2000/svg">
<path d="M1.65057 11H0.357955L4.09659 0.818182H5.36932L9.10795 11H7.81534L4.77273 2.42898H4.69318L1.65057 11ZM2.12784 7.02273H7.33807V8.11648H2.12784V7.02273ZM10.6939 11V0.818182H11.8672V4.5767H11.9666C12.0528 4.44413 12.1721 4.27509 12.3246 4.0696C12.4804 3.8608 12.7024 3.67519 12.9908 3.51278C13.2824 3.34706 13.6768 3.2642 14.174 3.2642C14.817 3.2642 15.3838 3.42495 15.8743 3.74645C16.3648 4.06794 16.7476 4.52367 17.0227 5.11364C17.2978 5.7036 17.4354 6.39962 17.4354 7.2017C17.4354 8.01042 17.2978 8.71141 17.0227 9.30469C16.7476 9.89465 16.3665 10.352 15.8793 10.6768C15.392 10.9983 14.8303 11.1591 14.1939 11.1591C13.7034 11.1591 13.3106 11.0779 13.0156 10.9155C12.7206 10.7498 12.4936 10.5625 12.3345 10.3537C12.1754 10.1416 12.0528 9.96591 11.9666 9.8267H11.8274V11H10.6939ZM11.8473 7.18182C11.8473 7.75852 11.9318 8.26728 12.1009 8.7081C12.2699 9.1456 12.5168 9.48864 12.8416 9.73722C13.1664 9.98248 13.5642 10.1051 14.0348 10.1051C14.5253 10.1051 14.9347 9.97585 15.2628 9.71733C15.5942 9.45549 15.8428 9.10417 16.0085 8.66335C16.1776 8.21922 16.2621 7.72538 16.2621 7.18182C16.2621 6.64489 16.1792 6.16098 16.0135 5.73011C15.8511 5.29593 15.6042 4.95289 15.2727 4.70099C14.9446 4.44579 14.532 4.31818 14.0348 4.31818C13.5575 4.31818 13.1565 4.43916 12.8317 4.68111C12.5069 4.91974 12.2616 5.2545 12.0959 5.68537C11.9302 6.11293 11.8473 6.61174 11.8473 7.18182ZM22.3324 11.1591C21.643 11.1591 21.0381 10.995 20.5178 10.6669C20.0007 10.3388 19.5964 9.87973 19.3047 9.28977C19.0163 8.69981 18.8722 8.01042 18.8722 7.22159C18.8722 6.42614 19.0163 5.73177 19.3047 5.13849C19.5964 4.54522 20.0007 4.08452 20.5178 3.75639C21.0381 3.42827 21.643 3.2642 22.3324 3.2642C23.0218 3.2642 23.625 3.42827 24.142 3.75639C24.6624 4.08452 25.0668 4.54522 25.3551 5.13849C25.6468 5.73177 25.7926 6.42614 25.7926 7.22159C25.7926 8.01042 25.6468 8.69981 25.3551 9.28977C25.0668 9.87973 24.6624 10.3388 24.142 10.6669C23.625 10.995 23.0218 11.1591 22.3324 11.1591ZM22.3324 10.1051C22.8561 10.1051 23.2869 9.97088 23.625 9.70241C23.9631 9.43395 24.2133 9.08097 24.3757 8.64347C24.5381 8.20597 24.6193 7.73201 24.6193 7.22159C24.6193 6.71117 24.5381 6.23556 24.3757 5.79474C24.2133 5.35393 23.9631 4.99763 23.625 4.72585C23.2869 4.45407 22.8561 4.31818 22.3324 4.31818C21.8087 4.31818 21.3778 4.45407 21.0398 4.72585C20.7017 4.99763 20.4515 5.35393 20.2891 5.79474C20.1267 6.23556 20.0455 6.71117 20.0455 7.22159C20.0455 7.73201 20.1267 8.20597 20.2891 8.64347C20.4515 9.08097 20.7017 9.43395 21.0398 9.70241C21.3778 9.97088 21.8087 10.1051 22.3324 10.1051ZM32.3961 7.87784V3.36364H33.5694V11H32.3961V9.70739H32.3166C32.1376 10.0952 31.8592 10.425 31.4814 10.6967C31.1035 10.9652 30.6262 11.0994 30.0495 11.0994C29.5723 11.0994 29.148 10.995 28.7768 10.7862C28.4056 10.5741 28.1139 10.2559 27.9018 9.83168C27.6897 9.40412 27.5836 8.86553 27.5836 8.21591V3.36364H28.7569V8.13636C28.7569 8.69318 28.9127 9.13731 29.2243 9.46875C29.5391 9.80019 29.9402 9.96591 30.4274 9.96591C30.719 9.96591 31.0157 9.89134 31.3173 9.74219C31.6222 9.59304 31.8774 9.36435 32.0829 9.05611C32.2917 8.74787 32.3961 8.35511 32.3961 7.87784ZM39.0394 3.36364V4.35795H35.082V3.36364H39.0394ZM36.2354 1.53409H37.4087V8.8125C37.4087 9.14394 37.4568 9.39252 37.5529 9.55824C37.6523 9.72064 37.7783 9.83002 37.9308 9.88636C38.0865 9.93939 38.2506 9.96591 38.4229 9.96591C38.5522 9.96591 38.6583 9.95928 38.7411 9.94602C38.824 9.92945 38.8903 9.91619 38.94 9.90625L39.1786 10.9602C39.0991 10.9901 38.988 11.0199 38.8455 11.0497C38.703 11.0829 38.5224 11.0994 38.3036 11.0994C37.9722 11.0994 37.6474 11.0282 37.3292 10.8857C37.0143 10.7431 36.7525 10.526 36.5437 10.2344C36.3382 9.94271 36.2354 9.57481 36.2354 9.13068V1.53409ZM51.5827 0.818182H52.8157V7.55966C52.8157 8.25568 52.6516 8.87713 52.3235 9.42401C51.9987 9.96757 51.5397 10.3968 50.9464 10.7116C50.3531 11.0232 49.6571 11.179 48.8583 11.179C48.0595 11.179 47.3635 11.0232 46.7702 10.7116C46.177 10.3968 45.7163 9.96757 45.3881 9.42401C45.0633 8.87713 44.9009 8.25568 44.9009 7.55966V0.818182H46.1339V7.46023C46.1339 7.95739 46.2433 8.39986 46.462 8.78764C46.6808 9.17211 46.9923 9.47538 47.3967 9.69744C47.8043 9.91619 48.2915 10.0256 48.8583 10.0256C49.4251 10.0256 49.9123 9.91619 50.32 9.69744C50.7276 9.47538 51.0392 9.17211 51.2546 8.78764C51.4734 8.39986 51.5827 7.95739 51.5827 7.46023V0.818182ZM60.5279 5.07386L59.4739 5.37216C59.4076 5.1965 59.3098 5.0258 59.1806 4.86009C59.0546 4.69105 58.8823 4.55185 58.6635 4.44247C58.4448 4.3331 58.1647 4.27841 57.8233 4.27841C57.356 4.27841 56.9666 4.38613 56.655 4.60156C56.3468 4.81368 56.1926 5.08381 56.1926 5.41193C56.1926 5.7036 56.2987 5.93395 56.5108 6.10298C56.723 6.27202 57.0544 6.41288 57.5051 6.52557L58.6387 6.80398C59.3214 6.9697 59.8302 7.22325 60.165 7.56463C60.4997 7.9027 60.6671 8.33854 60.6671 8.87216C60.6671 9.30966 60.5411 9.70076 60.2892 10.0455C60.0407 10.3902 59.6926 10.6619 59.2452 10.8608C58.7978 11.0597 58.2774 11.1591 57.6841 11.1591C56.9052 11.1591 56.2606 10.9901 55.7502 10.652C55.2398 10.3139 54.9166 9.82008 54.7807 9.17045L55.8944 8.89205C56.0004 9.30303 56.2009 9.61127 56.4959 9.81676C56.7942 10.0223 57.1837 10.125 57.6642 10.125C58.2111 10.125 58.6453 10.009 58.9668 9.77699C59.2916 9.54167 59.454 9.25994 59.454 8.93182C59.454 8.66667 59.3612 8.4446 59.1756 8.26562C58.99 8.08333 58.705 7.94744 58.3205 7.85795L57.0478 7.55966C56.3484 7.39394 55.8347 7.13707 55.5066 6.78906C55.1818 6.43774 55.0194 5.99858 55.0194 5.47159C55.0194 5.04072 55.1403 4.65956 55.3823 4.32812C55.6275 3.99669 55.9606 3.73651 56.3816 3.54758C56.8058 3.35866 57.2864 3.2642 57.8233 3.2642C58.579 3.2642 59.1723 3.42992 59.6032 3.76136C60.0373 4.0928 60.3456 4.5303 60.5279 5.07386ZM6.80114 53.3636C6.74148 52.8598 6.49953 52.4688 6.07528 52.1903C5.65104 51.9119 5.13068 51.7727 4.5142 51.7727C4.06345 51.7727 3.66903 51.8456 3.33097 51.9915C2.99621 52.1373 2.73438 52.3378 2.54545 52.593C2.35985 52.8482 2.26705 53.1383 2.26705 53.4631C2.26705 53.7348 2.33168 53.9685 2.46094 54.1641C2.59351 54.3563 2.76255 54.517 2.96804 54.6463C3.17353 54.7723 3.38897 54.8767 3.61435 54.9595C3.83973 55.0391 4.04688 55.1037 4.2358 55.1534L5.26989 55.4318C5.53504 55.5014 5.83002 55.5975 6.15483 55.7202C6.48295 55.8428 6.79616 56.0102 7.09446 56.2223C7.39607 56.4311 7.64465 56.6996 7.8402 57.0277C8.03575 57.3558 8.13352 57.7585 8.13352 58.2358C8.13352 58.786 7.98935 59.2831 7.70099 59.7273C7.41596 60.1714 6.99834 60.5244 6.44815 60.7862C5.90128 61.0481 5.23674 61.179 4.45455 61.179C3.72538 61.179 3.09399 61.0613 2.56037 60.826C2.03007 60.5907 1.61245 60.2625 1.30753 59.8416C1.00592 59.4207 0.835227 58.9318 0.795455 58.375H2.06818C2.10133 58.7595 2.23059 59.0777 2.45597 59.3295C2.68466 59.5781 2.97301 59.7637 3.32102 59.8864C3.67235 60.0057 4.05019 60.0653 4.45455 60.0653C4.92519 60.0653 5.34777 59.9891 5.7223 59.8366C6.09683 59.6809 6.39347 59.4654 6.61222 59.1903C6.83097 58.9119 6.94034 58.5871 6.94034 58.2159C6.94034 57.8778 6.84588 57.6027 6.65696 57.3906C6.46804 57.1785 6.21946 57.0062 5.91122 56.8736C5.60298 56.741 5.26989 56.625 4.91193 56.5256L3.65909 56.1676C2.86364 55.9389 2.2339 55.6125 1.76989 55.1882C1.30587 54.764 1.07386 54.2088 1.07386 53.5227C1.07386 52.9527 1.22798 52.4555 1.53622 52.0312C1.84777 51.6037 2.26539 51.2723 2.78906 51.0369C3.31605 50.7983 3.90436 50.679 4.55398 50.679C5.21023 50.679 5.79356 50.7966 6.30398 51.032C6.81439 51.264 7.21875 51.5821 7.51705 51.9865C7.81866 52.3909 7.97775 52.8499 7.99432 53.3636H6.80114ZM13.2033 61.1591C12.4675 61.1591 11.8328 60.9967 11.2992 60.6719C10.7689 60.3438 10.3596 59.8864 10.0712 59.2997C9.78616 58.7098 9.64364 58.0237 9.64364 57.2415C9.64364 56.4593 9.78616 55.7699 10.0712 55.1733C10.3596 54.5734 10.7606 54.1061 11.2743 53.7713C11.7914 53.4332 12.3946 53.2642 13.084 53.2642C13.4817 53.2642 13.8745 53.3305 14.2623 53.4631C14.65 53.5956 15.003 53.8111 15.3212 54.1094C15.6394 54.4044 15.8929 54.7955 16.0819 55.2827C16.2708 55.7699 16.3652 56.3698 16.3652 57.0824V57.5795H10.4789V56.5653H15.1721C15.1721 56.1345 15.0859 55.75 14.9135 55.4119C14.7445 55.0739 14.5025 54.8071 14.1877 54.6115C13.8761 54.416 13.5082 54.3182 13.084 54.3182C12.6167 54.3182 12.2123 54.4342 11.8709 54.6662C11.5328 54.8949 11.2727 55.1932 11.0904 55.5611C10.9081 55.929 10.8169 56.3234 10.8169 56.7443V57.4205C10.8169 57.9972 10.9164 58.486 11.1152 58.8871C11.3174 59.2848 11.5975 59.5881 11.9554 59.7969C12.3134 60.0024 12.7293 60.1051 13.2033 60.1051C13.5115 60.1051 13.79 60.062 14.0385 59.9759C14.2904 59.8864 14.5075 59.7538 14.6898 59.5781C14.8721 59.3991 15.013 59.1771 15.1124 58.9119L16.2459 59.2301C16.1266 59.6146 15.9261 59.9527 15.6444 60.2443C15.3626 60.5327 15.0146 60.758 14.6003 60.9205C14.186 61.0795 13.7203 61.1591 13.2033 61.1591ZM21.4711 53.3636V54.358H17.5137V53.3636H21.4711ZM18.6671 51.5341H19.8404V58.8125C19.8404 59.1439 19.8884 59.3925 19.9846 59.5582C20.084 59.7206 20.2099 59.83 20.3624 59.8864C20.5182 59.9394 20.6822 59.9659 20.8546 59.9659C20.9838 59.9659 21.0899 59.9593 21.1728 59.946C21.2556 59.9295 21.3219 59.9162 21.3716 59.9062L21.6103 60.9602C21.5307 60.9901 21.4197 61.0199 21.2772 61.0497C21.1346 61.0829 20.954 61.0994 20.7353 61.0994C20.4038 61.0994 20.079 61.0282 19.7608 60.8857C19.446 60.7431 19.1841 60.526 18.9753 60.2344C18.7698 59.9427 18.6671 59.5748 18.6671 59.1307V51.5341ZM26.557 53.3636V54.358H22.5996V53.3636H26.557ZM23.753 51.5341H24.9263V58.8125C24.9263 59.1439 24.9744 59.3925 25.0705 59.5582C25.1699 59.7206 25.2959 59.83 25.4483 59.8864C25.6041 59.9394 25.7682 59.9659 25.9405 59.9659C26.0698 59.9659 26.1758 59.9593 26.2587 59.946C26.3416 59.9295 26.4078 59.9162 26.4576 59.9062L26.6962 60.9602C26.6167 60.9901 26.5056 61.0199 26.3631 61.0497C26.2206 61.0829 26.04 61.0994 25.8212 61.0994C25.4898 61.0994 25.165 61.0282 24.8468 60.8857C24.5319 60.7431 24.2701 60.526 24.0613 60.2344C23.8558 59.9427 23.753 59.5748 23.753 59.1307V51.5341ZM28.3219 61V53.3636H29.4952V61H28.3219ZM28.9185 52.0909C28.6898 52.0909 28.4926 52.013 28.3269 51.8572C28.1645 51.7015 28.0833 51.5142 28.0833 51.2955C28.0833 51.0767 28.1645 50.8894 28.3269 50.7337C28.4926 50.5779 28.6898 50.5 28.9185 50.5C29.1472 50.5 29.3427 50.5779 29.5051 50.7337C29.6709 50.8894 29.7537 51.0767 29.7537 51.2955C29.7537 51.5142 29.6709 51.7015 29.5051 51.8572C29.3427 52.013 29.1472 52.0909 28.9185 52.0909ZM32.8175 56.4062V61H31.6442V53.3636H32.7777V54.5568H32.8771C33.0561 54.169 33.3279 53.8575 33.6925 53.6222C34.0571 53.3835 34.5277 53.2642 35.1044 53.2642C35.6214 53.2642 36.0739 53.3703 36.4616 53.5824C36.8494 53.7912 37.151 54.1094 37.3665 54.5369C37.5819 54.9612 37.6896 55.4981 37.6896 56.1477V61H36.5163V56.2273C36.5163 55.6274 36.3606 55.16 36.049 54.8253C35.7375 54.4872 35.3099 54.3182 34.7663 54.3182C34.3918 54.3182 34.0571 54.3994 33.7621 54.5618C33.4704 54.7242 33.2401 54.9612 33.071 55.2727C32.902 55.5843 32.8175 55.9621 32.8175 56.4062ZM42.916 64.0227C42.3493 64.0227 41.862 63.9498 41.4544 63.804C41.0467 63.6615 40.707 63.4725 40.4352 63.2372C40.1667 63.0052 39.9529 62.7566 39.7939 62.4915L40.7285 61.8352C40.8346 61.9744 40.9688 62.1335 41.1312 62.3125C41.2936 62.4948 41.5157 62.6522 41.7974 62.7848C42.0824 62.9207 42.4553 62.9886 42.916 62.9886C43.5325 62.9886 44.0413 62.8395 44.4423 62.5412C44.8433 62.2429 45.0439 61.7756 45.0439 61.1392V59.5881H44.9444C44.8583 59.7273 44.7356 59.8996 44.5765 60.1051C44.4208 60.3073 44.1954 60.4879 43.9004 60.647C43.6087 60.8028 43.2143 60.8807 42.7172 60.8807C42.1007 60.8807 41.5472 60.7348 41.0566 60.4432C40.5694 60.1515 40.1833 59.7273 39.8983 59.1705C39.6165 58.6136 39.4757 57.9375 39.4757 57.142C39.4757 56.3598 39.6132 55.6787 39.8883 55.0987C40.1634 54.5154 40.5462 54.0646 41.0368 53.7464C41.5273 53.425 42.094 53.2642 42.737 53.2642C43.2342 53.2642 43.6286 53.3471 43.9203 53.5128C44.2153 53.6752 44.4406 53.8608 44.5964 54.0696C44.7555 54.2751 44.8781 54.4441 44.9643 54.5767H45.0836V53.3636H46.2172V61.2188C46.2172 61.875 46.068 62.4086 45.7697 62.8196C45.4747 63.2339 45.077 63.5372 44.5765 63.7294C44.0794 63.925 43.5259 64.0227 42.916 64.0227ZM42.8762 59.8267C43.3469 59.8267 43.7446 59.719 44.0694 59.5036C44.3942 59.2881 44.6412 58.9782 44.8102 58.5739C44.9792 58.1695 45.0637 57.6856 45.0637 57.1222C45.0637 56.572 44.9809 56.0864 44.8152 55.6655C44.6494 55.2446 44.4042 54.9148 44.0794 54.6761C43.7546 54.4375 43.3535 54.3182 42.8762 54.3182C42.3791 54.3182 41.9648 54.4441 41.6333 54.696C41.3052 54.9479 41.0583 55.286 40.8926 55.7102C40.7302 56.1345 40.649 56.6051 40.649 57.1222C40.649 57.6525 40.7318 58.1214 40.8975 58.5291C41.0666 58.9335 41.3152 59.2517 41.6433 59.4837C41.9747 59.7124 42.3857 59.8267 42.8762 59.8267ZM53.774 55.0739L52.72 55.3722C52.6537 55.1965 52.5559 55.0258 52.4267 54.8601C52.3007 54.6911 52.1284 54.5518 51.9096 54.4425C51.6909 54.3331 51.4108 54.2784 51.0694 54.2784C50.6021 54.2784 50.2127 54.3861 49.9011 54.6016C49.5929 54.8137 49.4387 55.0838 49.4387 55.4119C49.4387 55.7036 49.5448 55.9339 49.7569 56.103C49.969 56.272 50.3005 56.4129 50.7512 56.5256L51.8848 56.804C52.5675 56.9697 53.0763 57.2232 53.411 57.5646C53.7458 57.9027 53.9132 58.3385 53.9132 58.8722C53.9132 59.3097 53.7872 59.7008 53.5353 60.0455C53.2868 60.3902 52.9387 60.6619 52.4913 60.8608C52.0439 61.0597 51.5235 61.1591 50.9302 61.1591C50.1513 61.1591 49.5067 60.9901 48.9963 60.652C48.4859 60.3139 48.1627 59.8201 48.0268 59.1705L49.1404 58.892C49.2465 59.303 49.447 59.6113 49.742 59.8168C50.0403 60.0223 50.4297 60.125 50.9103 60.125C51.4572 60.125 51.8914 60.009 52.2129 59.777C52.5377 59.5417 52.7001 59.2599 52.7001 58.9318C52.7001 58.6667 52.6073 58.4446 52.4217 58.2656C52.2361 58.0833 51.9511 57.9474 51.5666 57.858L50.2939 57.5597C49.5945 57.3939 49.0808 57.1371 48.7527 56.7891C48.4279 56.4377 48.2654 55.9986 48.2654 55.4716C48.2654 55.0407 48.3864 54.6596 48.6284 54.3281C48.8736 53.9967 49.2067 53.7365 49.6277 53.5476C50.0519 53.3587 50.5325 53.2642 51.0694 53.2642C51.8251 53.2642 52.4184 53.4299 52.8493 53.7614C53.2834 54.0928 53.5917 54.5303 53.774 55.0739ZM0.676136 101.912V100.818H8.3125V101.912H5.1108V111H3.87784V101.912H0.676136ZM12.1506 111.159C11.4148 111.159 10.7801 110.997 10.2464 110.672C9.71615 110.344 9.30682 109.886 9.01847 109.3C8.73343 108.71 8.59091 108.024 8.59091 107.241C8.59091 106.459 8.73343 105.77 9.01847 105.173C9.30682 104.573 9.70786 104.106 10.2216 103.771C10.7386 103.433 11.3419 103.264 12.0312 103.264C12.429 103.264 12.8217 103.33 13.2095 103.463C13.5973 103.596 13.9503 103.811 14.2685 104.109C14.5866 104.404 14.8402 104.795 15.0291 105.283C15.218 105.77 15.3125 106.37 15.3125 107.082V107.58H9.42614V106.565H14.1193C14.1193 106.134 14.0331 105.75 13.8608 105.412C13.6918 105.074 13.4498 104.807 13.1349 104.612C12.8234 104.416 12.4555 104.318 12.0312 104.318C11.5639 104.318 11.1596 104.434 10.8182 104.666C10.4801 104.895 10.2199 105.193 10.0376 105.561C9.85535 105.929 9.7642 106.323 9.7642 106.744V107.42C9.7642 107.997 9.86364 108.486 10.0625 108.887C10.2647 109.285 10.5447 109.588 10.9027 109.797C11.2607 110.002 11.6766 110.105 12.1506 110.105C12.4588 110.105 12.7372 110.062 12.9858 109.976C13.2377 109.886 13.4548 109.754 13.6371 109.578C13.8194 109.399 13.9602 109.177 14.0597 108.912L15.1932 109.23C15.0739 109.615 14.8733 109.953 14.5916 110.244C14.3099 110.533 13.9619 110.758 13.5476 110.92C13.1333 111.08 12.6676 111.159 12.1506 111.159ZM17.0973 111V103.364H18.2308V104.517H18.3104C18.4496 104.139 18.7015 103.833 19.0661 103.597C19.4306 103.362 19.8416 103.244 20.299 103.244C20.3852 103.244 20.4929 103.246 20.6222 103.249C20.7514 103.253 20.8492 103.258 20.9155 103.264V104.457C20.8757 104.447 20.7846 104.433 20.642 104.413C20.5028 104.389 20.3554 104.378 20.1996 104.378C19.8284 104.378 19.4969 104.456 19.2053 104.612C18.9169 104.764 18.6882 104.976 18.5192 105.248C18.3535 105.516 18.2706 105.823 18.2706 106.168V111H17.0973ZM22.3063 111V103.364H23.4398V104.557H23.5392C23.6983 104.149 23.9552 103.833 24.3098 103.607C24.6645 103.379 25.0904 103.264 25.5875 103.264C26.0913 103.264 26.5106 103.379 26.8453 103.607C27.1834 103.833 27.4469 104.149 27.6358 104.557H27.7154C27.9109 104.162 28.2042 103.849 28.5953 103.617C28.9864 103.382 29.4554 103.264 30.0023 103.264C30.6851 103.264 31.2435 103.478 31.6777 103.906C32.1119 104.33 32.329 104.991 32.329 105.889V111H31.1557V105.889C31.1557 105.326 31.0016 104.923 30.6934 104.681C30.3851 104.439 30.0222 104.318 29.6046 104.318C29.0676 104.318 28.6517 104.481 28.3567 104.805C28.0617 105.127 27.9142 105.535 27.9142 106.028V111H26.7211V105.77C26.7211 105.336 26.5802 104.986 26.2985 104.721C26.0167 104.452 25.6538 104.318 25.2097 104.318C24.9048 104.318 24.6197 104.399 24.3546 104.562C24.0927 104.724 23.8806 104.95 23.7182 105.238C23.5591 105.523 23.4796 105.853 23.4796 106.227V111H22.3063ZM39.8833 105.074L38.8294 105.372C38.7631 105.196 38.6653 105.026 38.536 104.86C38.4101 104.691 38.2377 104.552 38.019 104.442C37.8002 104.333 37.5202 104.278 37.1788 104.278C36.7115 104.278 36.322 104.386 36.0105 104.602C35.7022 104.814 35.5481 105.084 35.5481 105.412C35.5481 105.704 35.6542 105.934 35.8663 106.103C36.0784 106.272 36.4099 106.413 36.8606 106.526L37.9941 106.804C38.6769 106.97 39.1857 107.223 39.5204 107.565C39.8552 107.903 40.0225 108.339 40.0225 108.872C40.0225 109.31 39.8966 109.701 39.6447 110.045C39.3961 110.39 39.0481 110.662 38.6007 110.861C38.1532 111.06 37.6329 111.159 37.0396 111.159C36.2607 111.159 35.6161 110.99 35.1056 110.652C34.5952 110.314 34.2721 109.82 34.1362 109.17L35.2498 108.892C35.3559 109.303 35.5564 109.611 35.8514 109.817C36.1497 110.022 36.5391 110.125 37.0197 110.125C37.5666 110.125 38.0008 110.009 38.3223 109.777C38.6471 109.542 38.8095 109.26 38.8095 108.932C38.8095 108.667 38.7167 108.445 38.5311 108.266C38.3455 108.083 38.0604 107.947 37.676 107.858L36.4032 107.56C35.7039 107.394 35.1902 107.137 34.862 106.789C34.5372 106.438 34.3748 105.999 34.3748 105.472C34.3748 105.041 34.4958 104.66 34.7377 104.328C34.983 103.997 35.3161 103.737 35.737 103.548C36.1613 103.359 36.6419 103.264 37.1788 103.264C37.9345 103.264 38.5278 103.43 38.9586 103.761C39.3928 104.093 39.7011 104.53 39.8833 105.074ZM46.3029 111H45.0103L48.7489 100.818H50.0217L53.7603 111H52.4677L49.4251 102.429H49.3455L46.3029 111ZM46.7802 107.023H51.9904V108.116H46.7802V107.023ZM56.3604 106.406V111H55.1871V103.364H56.3207V104.557H56.4201C56.5991 104.169 56.8709 103.857 57.2354 103.622C57.6 103.384 58.0707 103.264 58.6474 103.264C59.1644 103.264 59.6168 103.37 60.0046 103.582C60.3924 103.791 60.694 104.109 60.9094 104.537C61.1249 104.961 61.2326 105.498 61.2326 106.148V111H60.0593V106.227C60.0593 105.627 59.9035 105.16 59.592 104.825C59.2804 104.487 58.8529 104.318 58.3093 104.318C57.9348 104.318 57.6 104.399 57.305 104.562C57.0134 104.724 56.783 104.961 56.614 105.273C56.445 105.584 56.3604 105.962 56.3604 106.406ZM66.2601 111.159C65.6238 111.159 65.062 110.998 64.5748 110.677C64.0875 110.352 63.7064 109.895 63.4313 109.305C63.1562 108.711 63.0186 108.01 63.0186 107.202C63.0186 106.4 63.1562 105.704 63.4313 105.114C63.7064 104.524 64.0892 104.068 64.5797 103.746C65.0703 103.425 65.637 103.264 66.28 103.264C66.7772 103.264 67.1699 103.347 67.4583 103.513C67.7499 103.675 67.972 103.861 68.1245 104.07C68.2802 104.275 68.4012 104.444 68.4874 104.577H68.5868V100.818H69.7601V111H68.6266V109.827H68.4874C68.4012 109.966 68.2786 110.142 68.1195 110.354C67.9604 110.562 67.7334 110.75 67.4384 110.915C67.1434 111.078 66.7507 111.159 66.2601 111.159ZM66.4192 110.105C66.8899 110.105 67.2876 109.982 67.6124 109.737C67.9372 109.489 68.1841 109.146 68.3532 108.708C68.5222 108.267 68.6067 107.759 68.6067 107.182C68.6067 106.612 68.5239 106.113 68.3581 105.685C68.1924 105.254 67.9471 104.92 67.6223 104.681C67.2975 104.439 66.8965 104.318 66.4192 104.318C65.9221 104.318 65.5078 104.446 65.1763 104.701C64.8482 104.953 64.6013 105.296 64.4355 105.73C64.2731 106.161 64.1919 106.645 64.1919 107.182C64.1919 107.725 64.2748 108.219 64.4405 108.663C64.6096 109.104 64.8581 109.455 65.1863 109.717C65.5177 109.976 65.9287 110.105 66.4192 110.105ZM84.3617 104H83.1287C83.0558 103.645 82.9282 103.334 82.7459 103.065C82.5669 102.797 82.3482 102.571 82.0897 102.389C81.8345 102.204 81.5511 102.064 81.2395 101.972C80.928 101.879 80.6032 101.832 80.2651 101.832C79.6486 101.832 79.0901 101.988 78.5897 102.3C78.0925 102.611 77.6964 103.07 77.4015 103.677C77.1098 104.283 76.964 105.027 76.964 105.909C76.964 106.791 77.1098 107.535 77.4015 108.141C77.6964 108.748 78.0925 109.207 78.5897 109.518C79.0901 109.83 79.6486 109.986 80.2651 109.986C80.6032 109.986 80.928 109.939 81.2395 109.847C81.5511 109.754 81.8345 109.616 82.0897 109.434C82.3482 109.248 82.5669 109.021 82.7459 108.753C82.9282 108.481 83.0558 108.17 83.1287 107.818H84.3617C84.2689 108.339 84.0998 108.804 83.8546 109.215C83.6093 109.626 83.3044 109.976 82.9398 110.264C82.5752 110.549 82.1659 110.766 81.7118 110.915C81.2611 111.065 80.7788 111.139 80.2651 111.139C79.3967 111.139 78.6245 110.927 77.9483 110.503C77.2722 110.079 76.7402 109.475 76.3525 108.693C75.9647 107.911 75.7708 106.983 75.7708 105.909C75.7708 104.835 75.9647 103.907 76.3525 103.125C76.7402 102.343 77.2722 101.74 77.9483 101.315C78.6245 100.891 79.3967 100.679 80.2651 100.679C80.7788 100.679 81.2611 100.754 81.7118 100.903C82.1659 101.052 82.5752 101.271 82.9398 101.559C83.3044 101.844 83.6093 102.192 83.8546 102.603C84.0998 103.011 84.2689 103.476 84.3617 104ZM89.2972 111.159C88.6078 111.159 88.003 110.995 87.4826 110.667C86.9656 110.339 86.5612 109.88 86.2695 109.29C85.9812 108.7 85.837 108.01 85.837 107.222C85.837 106.426 85.9812 105.732 86.2695 105.138C86.5612 104.545 86.9656 104.085 87.4826 103.756C88.003 103.428 88.6078 103.264 89.2972 103.264C89.9866 103.264 90.5898 103.428 91.1069 103.756C91.6272 104.085 92.0316 104.545 92.32 105.138C92.6116 105.732 92.7575 106.426 92.7575 107.222C92.7575 108.01 92.6116 108.7 92.32 109.29C92.0316 109.88 91.6272 110.339 91.1069 110.667C90.5898 110.995 89.9866 111.159 89.2972 111.159ZM89.2972 110.105C89.8209 110.105 90.2518 109.971 90.5898 109.702C90.9279 109.434 91.1781 109.081 91.3406 108.643C91.503 108.206 91.5842 107.732 91.5842 107.222C91.5842 106.711 91.503 106.236 91.3406 105.795C91.1781 105.354 90.9279 104.998 90.5898 104.726C90.2518 104.454 89.8209 104.318 89.2972 104.318C88.7736 104.318 88.3427 104.454 88.0046 104.726C87.6665 104.998 87.4163 105.354 87.2539 105.795C87.0915 106.236 87.0103 106.711 87.0103 107.222C87.0103 107.732 87.0915 108.206 87.2539 108.643C87.4163 109.081 87.6665 109.434 88.0046 109.702C88.3427 109.971 88.7736 110.105 89.2972 110.105ZM95.7218 106.406V111H94.5485V103.364H95.682V104.557H95.7814C95.9604 104.169 96.2322 103.857 96.5968 103.622C96.9614 103.384 97.432 103.264 98.0087 103.264C98.5257 103.264 98.9782 103.37 99.3659 103.582C99.7537 103.791 100.055 104.109 100.271 104.537C100.486 104.961 100.594 105.498 100.594 106.148V111H99.4206V106.227C99.4206 105.627 99.2649 105.16 98.9533 104.825C98.6417 104.487 98.2142 104.318 97.6706 104.318C97.2961 104.318 96.9614 104.399 96.6664 104.562C96.3747 104.724 96.1444 104.961 95.9753 105.273C95.8063 105.584 95.7218 105.962 95.7218 106.406ZM105.621 111.159C104.985 111.159 104.423 110.998 103.936 110.677C103.449 110.352 103.068 109.895 102.793 109.305C102.518 108.711 102.38 108.01 102.38 107.202C102.38 106.4 102.518 105.704 102.793 105.114C103.068 104.524 103.451 104.068 103.941 103.746C104.432 103.425 104.998 103.264 105.641 103.264C106.138 103.264 106.531 103.347 106.82 103.513C107.111 103.675 107.333 103.861 107.486 104.07C107.642 104.275 107.763 104.444 107.849 104.577H107.948V100.818H109.121V111H107.988V109.827H107.849C107.763 109.966 107.64 110.142 107.481 110.354C107.322 110.562 107.095 110.75 106.8 110.915C106.505 111.078 106.112 111.159 105.621 111.159ZM105.781 110.105C106.251 110.105 106.649 109.982 106.974 109.737C107.299 109.489 107.545 109.146 107.714 108.708C107.884 108.267 107.968 107.759 107.968 107.182C107.968 106.612 107.885 106.113 107.719 105.685C107.554 105.254 107.308 104.92 106.984 104.681C106.659 104.439 106.258 104.318 105.781 104.318C105.283 104.318 104.869 104.446 104.538 104.701C104.21 104.953 103.963 105.296 103.797 105.73C103.634 106.161 103.553 106.645 103.553 107.182C103.553 107.725 103.636 108.219 103.802 108.663C103.971 109.104 104.219 109.455 104.548 109.717C104.879 109.976 105.29 110.105 105.781 110.105ZM111.433 111V103.364H112.607V111H111.433ZM112.03 102.091C111.801 102.091 111.604 102.013 111.438 101.857C111.276 101.701 111.195 101.514 111.195 101.295C111.195 101.077 111.276 100.889 111.438 100.734C111.604 100.578 111.801 100.5 112.03 100.5C112.259 100.5 112.454 100.578 112.616 100.734C112.782 100.889 112.865 101.077 112.865 101.295C112.865 101.514 112.782 101.701 112.616 101.857C112.454 102.013 112.259 102.091 112.03 102.091ZM118.077 103.364V104.358H114.119V103.364H118.077ZM115.273 101.534H116.446V108.812C116.446 109.144 116.494 109.393 116.59 109.558C116.689 109.721 116.815 109.83 116.968 109.886C117.124 109.939 117.288 109.966 117.46 109.966C117.589 109.966 117.695 109.959 117.778 109.946C117.861 109.929 117.927 109.916 117.977 109.906L118.216 110.96C118.136 110.99 118.025 111.02 117.883 111.05C117.74 111.083 117.559 111.099 117.341 111.099C117.009 111.099 116.684 111.028 116.366 110.886C116.051 110.743 115.79 110.526 115.581 110.234C115.375 109.943 115.273 109.575 115.273 109.131V101.534ZM119.841 111V103.364H121.015V111H119.841ZM120.438 102.091C120.209 102.091 120.012 102.013 119.846 101.857C119.684 101.701 119.603 101.514 119.603 101.295C119.603 101.077 119.684 100.889 119.846 100.734C120.012 100.578 120.209 100.5 120.438 100.5C120.667 100.5 120.862 100.578 121.025 100.734C121.19 100.889 121.273 101.077 121.273 101.295C121.273 101.514 121.19 101.701 121.025 101.857C120.862 102.013 120.667 102.091 120.438 102.091ZM126.266 111.159C125.577 111.159 124.972 110.995 124.451 110.667C123.934 110.339 123.53 109.88 123.238 109.29C122.95 108.7 122.806 108.01 122.806 107.222C122.806 106.426 122.95 105.732 123.238 105.138C123.53 104.545 123.934 104.085 124.451 103.756C124.972 103.428 125.577 103.264 126.266 103.264C126.955 103.264 127.559 103.428 128.076 103.756C128.596 104.085 129 104.545 129.289 105.138C129.58 105.732 129.726 106.426 129.726 107.222C129.726 108.01 129.58 108.7 129.289 109.29C129 109.88 128.596 110.339 128.076 110.667C127.559 110.995 126.955 111.159 126.266 111.159ZM126.266 110.105C126.79 110.105 127.221 109.971 127.559 109.702C127.897 109.434 128.147 109.081 128.309 108.643C128.472 108.206 128.553 107.732 128.553 107.222C128.553 106.711 128.472 106.236 128.309 105.795C128.147 105.354 127.897 104.998 127.559 104.726C127.221 104.454 126.79 104.318 126.266 104.318C125.742 104.318 125.311 104.454 124.973 104.726C124.635 104.998 124.385 105.354 124.223 105.795C124.06 106.236 123.979 106.711 123.979 107.222C123.979 107.732 124.06 108.206 124.223 108.643C124.385 109.081 124.635 109.434 124.973 109.702C125.311 109.971 125.742 110.105 126.266 110.105ZM132.691 106.406V111H131.517V103.364H132.651V104.557H132.75C132.929 104.169 133.201 103.857 133.566 103.622C133.93 103.384 134.401 103.264 134.977 103.264C135.494 103.264 135.947 103.37 136.335 103.582C136.722 103.791 137.024 104.109 137.24 104.537C137.455 104.961 137.563 105.498 137.563 106.148V111H136.389V106.227C136.389 105.627 136.234 105.16 135.922 104.825C135.61 104.487 135.183 104.318 134.639 104.318C134.265 104.318 133.93 104.399 133.635 104.562C133.343 104.724 133.113 104.961 132.944 105.273C132.775 105.584 132.691 105.962 132.691 106.406ZM145.116 105.074L144.062 105.372C143.996 105.196 143.898 105.026 143.768 104.86C143.643 104.691 143.47 104.552 143.251 104.442C143.033 104.333 142.753 104.278 142.411 104.278C141.944 104.278 141.554 104.386 141.243 104.602C140.935 104.814 140.781 105.084 140.781 105.412C140.781 105.704 140.887 105.934 141.099 106.103C141.311 106.272 141.642 106.413 142.093 106.526L143.227 106.804C143.909 106.97 144.418 107.223 144.753 107.565C145.088 107.903 145.255 108.339 145.255 108.872C145.255 109.31 145.129 109.701 144.877 110.045C144.629 110.39 144.281 110.662 143.833 110.861C143.386 111.06 142.865 111.159 142.272 111.159C141.493 111.159 140.848 110.99 140.338 110.652C139.828 110.314 139.504 109.82 139.369 109.17L140.482 108.892C140.588 109.303 140.789 109.611 141.084 109.817C141.382 110.022 141.772 110.125 142.252 110.125C142.799 110.125 143.233 110.009 143.555 109.777C143.879 109.542 144.042 109.26 144.042 108.932C144.042 108.667 143.949 108.445 143.763 108.266C143.578 108.083 143.293 107.947 142.908 107.858L141.636 107.56C140.936 107.394 140.423 107.137 140.094 106.789C139.77 106.438 139.607 105.999 139.607 105.472C139.607 105.041 139.728 104.66 139.97 104.328C140.215 103.997 140.549 103.737 140.969 103.548C141.394 103.359 141.874 103.264 142.411 103.264C143.167 103.264 143.76 103.43 144.191 103.761C144.625 104.093 144.933 104.53 145.116 105.074ZM1.23295 161V150.818H4.6733C5.47206 150.818 6.125 150.962 6.6321 151.251C7.14252 151.536 7.52036 151.922 7.76562 152.409C8.01089 152.896 8.13352 153.44 8.13352 154.04C8.13352 154.64 8.01089 155.185 7.76562 155.675C7.52367 156.166 7.14915 156.557 6.64205 156.849C6.13494 157.137 5.48532 157.281 4.69318 157.281H2.22727V156.188H4.65341C5.20028 156.188 5.63944 156.093 5.97088 155.904C6.30232 155.715 6.54261 155.46 6.69176 155.138C6.84422 154.814 6.92045 154.447 6.92045 154.04C6.92045 153.632 6.84422 153.268 6.69176 152.946C6.54261 152.625 6.30066 152.373 5.96591 152.19C5.63116 152.005 5.18703 151.912 4.63352 151.912H2.46591V161H1.23295ZM9.96058 161V153.364H11.0941V154.517H11.1737C11.3129 154.139 11.5647 153.833 11.9293 153.597C12.2939 153.362 12.7049 153.244 13.1623 153.244C13.2485 153.244 13.3562 153.246 13.4854 153.249C13.6147 153.253 13.7125 153.258 13.7788 153.264V154.457C13.739 154.447 13.6478 154.433 13.5053 154.413C13.3661 154.389 13.2186 154.378 13.0629 154.378C12.6916 154.378 12.3602 154.456 12.0685 154.612C11.7802 154.764 11.5515 154.976 11.3825 155.248C11.2167 155.516 11.1339 155.823 11.1339 156.168V161H9.96058ZM15.1696 161V153.364H16.3429V161H15.1696ZM15.7662 152.091C15.5375 152.091 15.3403 152.013 15.1745 151.857C15.0121 151.701 14.9309 151.514 14.9309 151.295C14.9309 151.077 15.0121 150.889 15.1745 150.734C15.3403 150.578 15.5375 150.5 15.7662 150.5C15.9949 150.5 16.1904 150.578 16.3528 150.734C16.5185 150.889 16.6014 151.077 16.6014 151.295C16.6014 151.514 16.5185 151.701 16.3528 151.857C16.1904 152.013 15.9949 152.091 15.7662 152.091ZM24.7362 153.364L21.9123 161H20.7191L17.8952 153.364H19.168L21.2759 159.449H21.3555L23.4634 153.364H24.7362ZM28.2995 161.179C27.8156 161.179 27.3765 161.088 26.9821 160.906C26.5877 160.72 26.2744 160.453 26.0424 160.105C25.8104 159.754 25.6944 159.33 25.6944 158.832C25.6944 158.395 25.7806 158.04 25.9529 157.768C26.1253 157.493 26.3556 157.278 26.644 157.122C26.9324 156.966 27.2505 156.85 27.5985 156.774C27.9499 156.695 28.3029 156.632 28.6575 156.585C29.1215 156.526 29.4977 156.481 29.786 156.451C30.0777 156.418 30.2898 156.363 30.4224 156.287C30.5583 156.211 30.6262 156.078 30.6262 155.889V155.849C30.6262 155.359 30.492 154.978 30.2235 154.706C29.9584 154.434 29.5557 154.298 29.0154 154.298C28.4553 154.298 28.0162 154.421 27.698 154.666C27.3798 154.911 27.1561 155.173 27.0268 155.452L25.9132 155.054C26.112 154.59 26.3772 154.229 26.7086 153.97C27.0434 153.708 27.408 153.526 27.8024 153.423C28.2001 153.317 28.5912 153.264 28.9757 153.264C29.2209 153.264 29.5027 153.294 29.8208 153.354C30.1423 153.41 30.4522 153.528 30.7505 153.707C31.0521 153.886 31.3024 154.156 31.5012 154.517C31.7001 154.878 31.7995 155.362 31.7995 155.969V161H30.6262V159.966H30.5666C30.487 160.132 30.3545 160.309 30.1689 160.498C29.9833 160.687 29.7363 160.848 29.4281 160.98C29.1199 161.113 28.7437 161.179 28.2995 161.179ZM28.4785 160.125C28.9425 160.125 29.3336 160.034 29.6518 159.852C29.9733 159.669 30.2153 159.434 30.3777 159.146C30.5434 158.857 30.6262 158.554 30.6262 158.236V157.162C30.5765 157.222 30.4672 157.276 30.2981 157.326C30.1324 157.372 29.9402 157.414 29.7214 157.45C29.506 157.483 29.2955 157.513 29.09 157.54C28.8878 157.563 28.7238 157.583 28.5978 157.599C28.2929 157.639 28.0079 157.704 27.7427 157.793C27.4809 157.879 27.2688 158.01 27.1064 158.186C26.9473 158.358 26.8677 158.594 26.8677 158.892C26.8677 159.3 27.0185 159.608 27.3201 159.817C27.6251 160.022 28.0112 160.125 28.4785 160.125ZM37.0433 161.159C36.3274 161.159 35.7109 160.99 35.1939 160.652C34.6768 160.314 34.2791 159.848 34.0007 159.255C33.7223 158.662 33.5831 157.984 33.5831 157.222C33.5831 156.446 33.7256 155.762 34.0107 155.168C34.299 154.572 34.7 154.106 35.2138 153.771C35.7308 153.433 36.334 153.264 37.0234 153.264C37.5604 153.264 38.0443 153.364 38.4751 153.562C38.906 153.761 39.259 154.04 39.5341 154.398C39.8092 154.756 39.9799 155.173 40.0462 155.651H38.8729C38.7834 155.303 38.5845 154.994 38.2763 154.726C37.9714 154.454 37.5604 154.318 37.0433 154.318C36.5859 154.318 36.1849 154.437 35.8402 154.676C35.4988 154.911 35.232 155.245 35.0398 155.675C34.8509 156.103 34.7564 156.605 34.7564 157.182C34.7564 157.772 34.8492 158.286 35.0348 158.723C35.2237 159.161 35.4889 159.5 35.8303 159.742C36.175 159.984 36.5793 160.105 37.0433 160.105C37.3482 160.105 37.625 160.052 37.8736 159.946C38.1222 159.84 38.3326 159.688 38.505 159.489C38.6773 159.29 38.8 159.051 38.8729 158.773H40.0462C39.9799 159.223 39.8158 159.629 39.554 159.991C39.2955 160.349 38.9524 160.634 38.5249 160.846C38.1006 161.055 37.6068 161.159 37.0433 161.159ZM42.517 163.864C42.3182 163.864 42.1409 163.847 41.9851 163.814C41.8293 163.784 41.7216 163.754 41.6619 163.724L41.9602 162.69C42.2453 162.763 42.4972 162.79 42.7159 162.77C42.9347 162.75 43.1286 162.652 43.2976 162.477C43.4699 162.304 43.6274 162.024 43.7699 161.636L43.9886 161.04L41.1648 153.364H42.4375L44.5455 159.449H44.625L46.733 153.364H48.0057L44.7642 162.114C44.6184 162.508 44.4377 162.835 44.2223 163.093C44.0069 163.355 43.7566 163.549 43.4716 163.675C43.1899 163.801 42.8717 163.864 42.517 163.864ZM53.6509 161V150.818H57.0913C57.89 150.818 58.543 150.962 59.0501 151.251C59.5605 151.536 59.9383 151.922 60.1836 152.409C60.4289 152.896 60.5515 153.44 60.5515 154.04C60.5515 154.64 60.4289 155.185 60.1836 155.675C59.9416 156.166 59.5671 156.557 59.06 156.849C58.5529 157.137 57.9033 157.281 57.1112 157.281H54.6452V156.188H57.0714C57.6183 156.188 58.0574 156.093 58.3888 155.904C58.7203 155.715 58.9606 155.46 59.1097 155.138C59.2622 154.814 59.3384 154.447 59.3384 154.04C59.3384 153.632 59.2622 153.268 59.1097 152.946C58.9606 152.625 58.7186 152.373 58.3839 152.19C58.0491 152.005 57.605 151.912 57.0515 151.912H54.8839V161H53.6509ZM65.3988 161.159C64.7094 161.159 64.1045 160.995 63.5842 160.667C63.0671 160.339 62.6628 159.88 62.3711 159.29C62.0827 158.7 61.9386 158.01 61.9386 157.222C61.9386 156.426 62.0827 155.732 62.3711 155.138C62.6628 154.545 63.0671 154.085 63.5842 153.756C64.1045 153.428 64.7094 153.264 65.3988 153.264C66.0882 153.264 66.6914 153.428 67.2085 153.756C67.7288 154.085 68.1332 154.545 68.4215 155.138C68.7132 155.732 68.859 156.426 68.859 157.222C68.859 158.01 68.7132 158.7 68.4215 159.29C68.1332 159.88 67.7288 160.339 67.2085 160.667C66.6914 160.995 66.0882 161.159 65.3988 161.159ZM65.3988 160.105C65.9225 160.105 66.3533 159.971 66.6914 159.702C67.0295 159.434 67.2797 159.081 67.4421 158.643C67.6045 158.206 67.6857 157.732 67.6857 157.222C67.6857 156.711 67.6045 156.236 67.4421 155.795C67.2797 155.354 67.0295 154.998 66.6914 154.726C66.3533 154.454 65.9225 154.318 65.3988 154.318C64.8751 154.318 64.4442 154.454 64.1062 154.726C63.7681 154.998 63.5179 155.354 63.3555 155.795C63.1931 156.236 63.1119 156.711 63.1119 157.222C63.1119 157.732 63.1931 158.206 63.3555 158.643C63.5179 159.081 63.7681 159.434 64.1062 159.702C64.4442 159.971 64.8751 160.105 65.3988 160.105ZM71.8233 150.818V161H70.65V150.818H71.8233ZM73.9723 161V153.364H75.1456V161H73.9723ZM74.5689 152.091C74.3402 152.091 74.143 152.013 73.9773 151.857C73.8149 151.701 73.7337 151.514 73.7337 151.295C73.7337 151.077 73.8149 150.889 73.9773 150.734C74.143 150.578 74.3402 150.5 74.5689 150.5C74.7976 150.5 74.9931 150.578 75.1555 150.734C75.3213 150.889 75.4041 151.077 75.4041 151.295C75.4041 151.514 75.3213 151.701 75.1555 151.857C74.9931 152.013 74.7976 152.091 74.5689 152.091ZM80.3968 161.159C79.6809 161.159 79.0645 160.99 78.5474 160.652C78.0304 160.314 77.6326 159.848 77.3542 159.255C77.0758 158.662 76.9366 157.984 76.9366 157.222C76.9366 156.446 77.0791 155.762 77.3642 155.168C77.6525 154.572 78.0536 154.106 78.5673 153.771C79.0843 153.433 79.6876 153.264 80.377 153.264C80.9139 153.264 81.3978 153.364 81.8287 153.562C82.2595 153.761 82.6125 154.04 82.8876 154.398C83.1627 154.756 83.3334 155.173 83.3997 155.651H82.2264C82.1369 155.303 81.938 154.994 81.6298 154.726C81.3249 154.454 80.9139 154.318 80.3968 154.318C79.9395 154.318 79.5384 154.437 79.1937 154.676C78.8523 154.911 78.5855 155.245 78.3933 155.675C78.2044 156.103 78.1099 156.605 78.1099 157.182C78.1099 157.772 78.2027 158.286 78.3883 158.723C78.5772 159.161 78.8424 159.5 79.1838 159.742C79.5285 159.984 79.9328 160.105 80.3968 160.105C80.7018 160.105 80.9785 160.052 81.2271 159.946C81.4757 159.84 81.6861 159.688 81.8585 159.489C82.0308 159.29 82.1535 159.051 82.2264 158.773H83.3997C83.3334 159.223 83.1693 159.629 82.9075 159.991C82.649 160.349 82.3059 160.634 81.8784 160.846C81.4541 161.055 80.9603 161.159 80.3968 161.159ZM85.8706 163.864C85.6717 163.864 85.4944 163.847 85.3386 163.814C85.1828 163.784 85.0751 163.754 85.0154 163.724L85.3137 162.69C85.5988 162.763 85.8507 162.79 86.0694 162.77C86.2882 162.75 86.4821 162.652 86.6511 162.477C86.8234 162.304 86.9809 162.024 87.1234 161.636L87.3422 161.04L84.5183 153.364H85.791L87.899 159.449H87.9785L90.0865 153.364H91.3592L88.1177 162.114C87.9719 162.508 87.7913 162.835 87.5758 163.093C87.3604 163.355 87.1101 163.549 86.8251 163.675C86.5434 163.801 86.2252 163.864 85.8706 163.864ZM1.23295 211V200.818H2.46591V209.906H7.19886V211H1.23295ZM12.0511 211.159C11.3617 211.159 10.7569 210.995 10.2365 210.667C9.71946 210.339 9.3151 209.88 9.02344 209.29C8.73509 208.7 8.59091 208.01 8.59091 207.222C8.59091 206.426 8.73509 205.732 9.02344 205.138C9.3151 204.545 9.71946 204.085 10.2365 203.756C10.7569 203.428 11.3617 203.264 12.0511 203.264C12.7405 203.264 13.3438 203.428 13.8608 203.756C14.3812 204.085 14.7855 204.545 15.0739 205.138C15.3655 205.732 15.5114 206.426 15.5114 207.222C15.5114 208.01 15.3655 208.7 15.0739 209.29C14.7855 209.88 14.3812 210.339 13.8608 210.667C13.3438 210.995 12.7405 211.159 12.0511 211.159ZM12.0511 210.105C12.5748 210.105 13.0057 209.971 13.3438 209.702C13.6818 209.434 13.9321 209.081 14.0945 208.643C14.2569 208.206 14.3381 207.732 14.3381 207.222C14.3381 206.711 14.2569 206.236 14.0945 205.795C13.9321 205.354 13.6818 204.998 13.3438 204.726C13.0057 204.454 12.5748 204.318 12.0511 204.318C11.5275 204.318 11.0966 204.454 10.7585 204.726C10.4205 204.998 10.1702 205.354 10.0078 205.795C9.84541 206.236 9.7642 206.711 9.7642 207.222C9.7642 207.732 9.84541 208.206 10.0078 208.643C10.1702 209.081 10.4205 209.434 10.7585 209.702C11.0966 209.971 11.5275 210.105 12.0511 210.105ZM20.3848 214.023C19.818 214.023 19.3308 213.95 18.9231 213.804C18.5154 213.661 18.1757 213.473 17.9039 213.237C17.6355 213.005 17.4217 212.757 17.2626 212.491L18.1973 211.835C18.3033 211.974 18.4376 212.134 18.6 212.312C18.7624 212.495 18.9844 212.652 19.2662 212.785C19.5512 212.921 19.9241 212.989 20.3848 212.989C21.0012 212.989 21.51 212.839 21.911 212.541C22.3121 212.243 22.5126 211.776 22.5126 211.139V209.588H22.4132C22.327 209.727 22.2044 209.9 22.0453 210.105C21.8895 210.307 21.6641 210.488 21.3691 210.647C21.0775 210.803 20.6831 210.881 20.1859 210.881C19.5694 210.881 19.0159 210.735 18.5254 210.443C18.0382 210.152 17.652 209.727 17.367 209.17C17.0853 208.614 16.9444 207.937 16.9444 207.142C16.9444 206.36 17.082 205.679 17.3571 205.099C17.6322 204.515 18.015 204.065 18.5055 203.746C18.996 203.425 19.5628 203.264 20.2058 203.264C20.7029 203.264 21.0974 203.347 21.389 203.513C21.684 203.675 21.9094 203.861 22.0652 204.07C22.2243 204.275 22.3469 204.444 22.4331 204.577H22.5524V203.364H23.6859V211.219C23.6859 211.875 23.5368 212.409 23.2385 212.82C22.9435 213.234 22.5458 213.537 22.0453 213.729C21.5481 213.925 20.9946 214.023 20.3848 214.023ZM20.345 209.827C20.8156 209.827 21.2134 209.719 21.5382 209.504C21.863 209.288 22.1099 208.978 22.2789 208.574C22.448 208.17 22.5325 207.686 22.5325 207.122C22.5325 206.572 22.4496 206.086 22.2839 205.665C22.1182 205.245 21.8729 204.915 21.5481 204.676C21.2233 204.437 20.8223 204.318 20.345 204.318C19.8478 204.318 19.4335 204.444 19.1021 204.696C18.774 204.948 18.527 205.286 18.3613 205.71C18.1989 206.134 18.1177 206.605 18.1177 207.122C18.1177 207.652 18.2006 208.121 18.3663 208.529C18.5353 208.933 18.7839 209.252 19.112 209.484C19.4435 209.712 19.8545 209.827 20.345 209.827ZM28.9359 211.159C28.2465 211.159 27.6416 210.995 27.1213 210.667C26.6042 210.339 26.1999 209.88 25.9082 209.29C25.6199 208.7 25.4757 208.01 25.4757 207.222C25.4757 206.426 25.6199 205.732 25.9082 205.138C26.1999 204.545 26.6042 204.085 27.1213 203.756C27.6416 203.428 28.2465 203.264 28.9359 203.264C29.6253 203.264 30.2285 203.428 30.7456 203.756C31.2659 204.085 31.6703 204.545 31.9586 205.138C32.2503 205.732 32.3961 206.426 32.3961 207.222C32.3961 208.01 32.2503 208.7 31.9586 209.29C31.6703 209.88 31.2659 210.339 30.7456 210.667C30.2285 210.995 29.6253 211.159 28.9359 211.159ZM28.9359 210.105C29.4596 210.105 29.8904 209.971 30.2285 209.702C30.5666 209.434 30.8168 209.081 30.9792 208.643C31.1416 208.206 31.2228 207.732 31.2228 207.222C31.2228 206.711 31.1416 206.236 30.9792 205.795C30.8168 205.354 30.5666 204.998 30.2285 204.726C29.8904 204.454 29.4596 204.318 28.9359 204.318C28.4122 204.318 27.9814 204.454 27.6433 204.726C27.3052 204.998 27.055 205.354 26.8926 205.795C26.7302 206.236 26.649 206.711 26.649 207.222C26.649 207.732 26.7302 208.206 26.8926 208.643C27.055 209.081 27.3052 209.434 27.6433 209.702C27.9814 209.971 28.4122 210.105 28.9359 210.105ZM38.9996 207.878V203.364H40.1729V211H38.9996V209.707H38.9201C38.7411 210.095 38.4627 210.425 38.0849 210.697C37.707 210.965 37.2298 211.099 36.6531 211.099C36.1758 211.099 35.7515 210.995 35.3803 210.786C35.0091 210.574 34.7174 210.256 34.5053 209.832C34.2932 209.404 34.1871 208.866 34.1871 208.216V203.364H35.3604V208.136C35.3604 208.693 35.5162 209.137 35.8278 209.469C36.1426 209.8 36.5437 209.966 37.0309 209.966C37.3226 209.966 37.6192 209.891 37.9208 209.742C38.2257 209.593 38.4809 209.364 38.6864 209.056C38.8952 208.748 38.9996 208.355 38.9996 207.878ZM45.6429 203.364V204.358H41.6855V203.364H45.6429ZM42.839 201.534H44.0123V208.812C44.0123 209.144 44.0603 209.393 44.1564 209.558C44.2559 209.721 44.3818 209.83 44.5343 209.886C44.69 209.939 44.8541 209.966 45.0265 209.966C45.1557 209.966 45.2618 209.959 45.3446 209.946C45.4275 209.929 45.4938 209.916 45.5435 209.906L45.7821 210.96C45.7026 210.99 45.5916 211.02 45.449 211.05C45.3065 211.083 45.1259 211.099 44.9071 211.099C44.5757 211.099 44.2509 211.028 43.9327 210.886C43.6178 210.743 43.356 210.526 43.1472 210.234C42.9417 209.943 42.839 209.575 42.839 209.131V201.534Z" fill="#1E1E1E"/>
</svg>
