<svg width="22" height="24" viewBox="0 0 22 24" fill="none" xmlns="http://www.w3.org/2000/svg">
<path d="M3.04222 7.7152C3.04222 7.55766 3.10297 7.40657 3.21112 7.29517C3.31927 7.18376 3.46596 7.12117 3.61891 7.12116H14.2284C14.3814 7.12116 14.5281 7.18374 14.6362 7.29515C14.7444 7.40655 14.8051 7.55765 14.8051 7.7152C14.8051 7.87275 14.7444 8.02385 14.6362 8.13526C14.5281 8.24666 14.3814 8.30925 14.2284 8.30925H3.61891C3.46596 8.30924 3.31927 8.24664 3.21112 8.13524C3.10297 8.02384 3.04222 7.87275 3.04222 7.7152ZM3.61891 11.3668H14.2284C14.3814 11.3668 14.5281 11.3042 14.6362 11.1928C14.7444 11.0814 14.8051 10.9303 14.8051 10.7727C14.8051 10.6152 14.7444 10.4641 14.6362 10.3527C14.5281 10.2413 14.3814 10.1787 14.2284 10.1787H3.61891C3.46595 10.1787 3.31925 10.2413 3.21109 10.3527C3.10293 10.4641 3.04217 10.6152 3.04217 10.7727C3.04217 10.9303 3.10293 11.0814 3.21109 11.1928C3.31925 11.3042 3.46595 11.3668 3.61891 11.3668ZM3.61891 14.4243H14.2284C14.3814 14.4243 14.5281 14.3617 14.6362 14.2503C14.7444 14.1389 14.8051 13.9878 14.8051 13.8303C14.8051 13.6727 14.7444 13.5216 14.6362 13.4102C14.5281 13.2988 14.3814 13.2362 14.2284 13.2362H3.61891C3.46595 13.2362 3.31925 13.2988 3.21109 13.4102C3.10293 13.5216 3.04217 13.6727 3.04217 13.8303C3.04217 13.9878 3.10293 14.1389 3.21109 14.2503C3.31925 14.3617 3.46595 14.4243 3.61891 14.4243ZM21.0473 22.2345C20.6861 22.7118 20.2365 23.1106 19.7247 23.4078C19.2129 23.7049 18.6489 23.8945 18.0654 23.9657C17.8834 23.9885 17.7002 23.9999 17.5169 24C16.6574 23.9978 15.8168 23.7408 15.0953 23.2598C14.3738 22.7788 13.802 22.0941 13.4481 21.2874H0.576741C0.42378 21.2874 0.277084 21.2249 0.168924 21.1134C0.0607637 21.002 0 20.8509 0 20.6934V0.594047C0 0.436496 0.0607637 0.285398 0.168924 0.173992C0.277084 0.0625869 0.42378 0 0.576741 0H12.6634C12.7404 6.7297e-07 12.8167 0.0159043 12.8877 0.0467717C12.9587 0.0776391 13.0229 0.122845 13.0767 0.179719L17.6841 5.05533C17.7889 5.16623 17.8475 5.31489 17.8475 5.46966V14.7997C18.6569 14.8592 19.4352 15.1444 20.0992 15.6249C20.7631 16.1053 21.2876 16.7627 21.6164 17.5268C21.9453 18.2908 22.066 19.1326 21.9657 19.962C21.8655 20.7913 21.548 21.5769 21.0473 22.2345ZM13.2401 4.77933H15.8137L13.2403 2.05589L13.2401 4.77933ZM13.1081 20.0993C13.1006 20.0492 13.0936 19.9989 13.0877 19.9482C12.9864 19.1068 13.1139 18.253 13.456 17.4818H3.61891C3.46595 17.4818 3.31925 17.4193 3.21109 17.3079C3.10293 17.1964 3.04217 17.0453 3.04217 16.8878C3.04217 16.7302 3.10293 16.5791 3.21109 16.4677C3.31925 16.3563 3.46595 16.2938 3.61891 16.2938H14.2181C14.8707 15.5538 15.7401 15.0536 16.694 14.8694V5.96742H12.6634C12.5876 5.96744 12.5126 5.95209 12.4426 5.92224C12.3726 5.8924 12.309 5.84865 12.2555 5.79348C12.2019 5.73832 12.1594 5.67283 12.1304 5.60074C12.1014 5.52866 12.0865 5.4514 12.0864 5.37337V1.18809H1.15344V20.0993H13.1081ZM19.5739 16.7022C18.8808 16.1458 18.0017 15.8952 17.1294 16.0055C16.2572 16.1157 15.463 16.5777 14.921 17.2902C14.379 18.0027 14.1335 18.9076 14.2382 19.8063C14.343 20.705 14.7894 21.5242 15.4798 22.0843C16.1727 22.6435 17.0529 22.8963 17.9268 22.787C18.8007 22.6778 19.5966 22.2154 20.1396 21.5017C20.6825 20.788 20.9279 19.8814 20.8218 18.9813C20.7157 18.0812 20.2669 17.2614 19.5739 16.7022ZM19.2576 17.775L17.2713 19.821L16.1612 18.6776C16.0528 18.5673 15.9065 18.5057 15.7541 18.5062C15.6018 18.5066 15.4558 18.5692 15.3481 18.6802C15.2403 18.7911 15.1796 18.9415 15.1791 19.0984C15.1787 19.2553 15.2385 19.4061 15.3456 19.5177L16.8635 21.0811C16.917 21.1363 16.9806 21.1801 17.0506 21.2099C17.1206 21.2398 17.1956 21.2551 17.2713 21.2551C17.347 21.2551 17.422 21.2398 17.492 21.2099C17.562 21.1801 17.6256 21.1363 17.6791 21.0811L20.0734 18.6151C20.1815 18.5037 20.2423 18.3526 20.2423 18.195C20.2423 18.0375 20.1815 17.8864 20.0733 17.775C19.9651 17.6635 19.8184 17.601 19.6655 17.601C19.5125 17.601 19.3658 17.6636 19.2576 17.775Z" fill="#D5A353"/>
</svg>
