<svg width="83" height="58" viewBox="0 0 83 58" fill="none" xmlns="http://www.w3.org/2000/svg">
<path fill-rule="evenodd" clip-rule="evenodd" d="M51.4784 39.6368C51.4784 41.6794 50.6503 43.5564 49.2978 44.8813C47.9453 46.2338 46.0959 47.0618 44.0534 47.0618C41.9832 47.0618 40.1339 46.2338 38.7813 44.8813C37.4564 43.5564 36.6008 41.6794 36.6008 39.6368C36.6008 37.5943 37.4564 35.7173 38.7813 34.3648C39.0022 34.1624 39.2322 33.9692 39.4714 33.7851L36.1315 30.2797L32.7916 33.7851C33.0309 33.9692 33.2517 34.1624 33.4541 34.3648C34.8066 35.7173 35.6347 37.5943 35.6347 39.6368C35.6347 41.6794 34.8066 43.5564 33.4541 44.8813C32.1292 46.2338 30.2522 47.0618 28.2097 47.0618C26.1671 47.0618 24.2902 46.2338 22.9652 44.8813C22.8364 44.7709 22.726 44.6512 22.634 44.5224L20.8123 46.3442L19.8462 45.4057L21.8336 43.4183C21.1711 42.3143 20.7847 41.0169 20.7847 39.6368C20.7847 37.5943 21.6127 35.7173 22.9652 34.3648C24.2902 33.0399 26.1671 32.2118 28.2097 32.2118C28.9273 32.2118 29.5898 32.2946 30.2522 32.4878L32.9849 26.7742L26.94 0.966064L36.1315 20.2048L45.3231 0.966064L39.2782 26.7742L42.0108 32.4878C42.6457 32.2946 43.3357 32.2118 44.0534 32.2118C46.0959 32.2118 47.9453 33.0399 49.2978 34.3648C50.6503 35.7173 51.4784 37.5943 51.4784 39.6368ZM33.1229 39.6368C33.1229 38.2843 32.5708 37.0422 31.6876 36.1589C30.8043 35.2757 29.5622 34.7236 28.2097 34.7236C26.8572 34.7236 25.6151 35.2757 24.7318 36.1589C23.8485 37.0422 23.2965 38.2843 23.2965 39.6368C23.2965 40.9893 23.8485 42.2314 24.7318 43.1147C25.6151 43.998 26.8572 44.55 28.2097 44.55C29.5622 44.55 30.8043 43.998 31.6876 43.1147C32.5708 42.2314 33.1229 40.9893 33.1229 39.6368ZM48.9666 39.6368C48.9666 38.2843 48.4145 37.0422 47.5313 36.1589C46.6204 35.2757 45.4059 34.7236 44.0534 34.7236C42.6733 34.7236 41.4588 35.2757 40.5755 36.1589C39.6646 37.0422 39.1402 38.2843 39.1402 39.6368C39.1402 40.9893 39.6646 42.2314 40.5755 43.1147C41.4588 43.998 42.6733 44.55 44.0534 44.55C45.4059 44.55 46.6204 43.998 47.5313 43.1147C48.4145 42.2314 48.9666 40.9893 48.9666 39.6368ZM48.0557 39.0572C48.5525 42.3419 45.4611 44.7156 42.5352 43.4735L41.6244 42.9215C43.5013 43.1423 44.9918 43.4459 46.3444 41.845C47.8073 40.0785 47.5037 38.5879 46.5928 36.711C47.5313 37.3458 47.8901 37.8703 48.0557 39.0572ZM32.1292 39.0572C32.626 42.3419 29.5346 44.7156 26.6087 43.4735L25.6979 42.9215C27.5748 43.1423 29.0653 43.4459 30.4179 41.845C31.8808 40.0785 31.5771 38.5879 30.6663 36.711C31.6047 37.3458 31.9636 37.8703 32.1292 39.0572Z" fill="#575756"/>
<path d="M53.1069 0.966079C53.1069 0.414034 53.5486 0 54.1006 0C54.6251 0 55.0667 0.414034 55.0667 0.966079L55.1495 45.6817C55.1495 46.2062 54.7079 46.6478 54.1834 46.6478C53.6314 46.6478 53.2173 46.2062 53.2173 45.6817L53.1069 0.966079Z" fill="#575756"/>
<path d="M54.2385 3.20195C53.7141 3.20195 53.2725 2.76031 53.2725 2.20827C53.2725 1.68382 53.7141 1.24219 54.2385 1.24219H60.6975C61.2219 1.24219 61.6635 1.68382 61.6635 2.20827C61.6635 2.76031 61.2219 3.20195 60.6975 3.20195H54.2385Z" fill="#575756"/>
<path d="M54.2385 24.9524C53.7141 24.9524 53.2725 24.5108 53.2725 23.9864C53.2725 23.4343 53.7141 22.9927 54.2385 22.9927H60.6975C61.2219 22.9927 61.6635 23.4343 61.6635 23.9864C61.6635 24.5108 61.2219 24.9524 60.6975 24.9524H54.2385Z" fill="#575756"/>
<path d="M54.2389 21.7231C53.88 21.7231 53.604 21.4471 53.604 21.0882C53.604 20.7294 53.88 20.4258 54.2389 20.4258H60.6978C61.0566 20.4258 61.3326 20.7294 61.3326 21.0882C61.3326 21.4471 61.0566 21.7231 60.6978 21.7231H54.2389Z" fill="#575756"/>
<path d="M54.2389 19.0456C53.88 19.0456 53.604 18.742 53.604 18.3832C53.604 18.0243 53.88 17.7207 54.2389 17.7207H60.6978C61.0566 17.7207 61.3326 18.0243 61.3326 18.3832C61.3326 18.742 61.0566 19.0456 60.6978 19.0456H54.2389Z" fill="#575756"/>
<path d="M54.2389 16.3405C53.88 16.3405 53.604 16.0369 53.604 15.6781C53.604 15.3192 53.88 15.0432 54.2389 15.0432H60.6978C61.0566 15.0432 61.3326 15.3192 61.3326 15.6781C61.3326 16.0369 61.0566 16.3405 60.6978 16.3405H54.2389Z" fill="#575756"/>
<path d="M54.2389 13.6354C53.88 13.6354 53.604 13.3594 53.604 13.0006C53.604 12.6418 53.88 12.3381 54.2389 12.3381H60.6978C61.0566 12.3381 61.3326 12.6418 61.3326 13.0006C61.3326 13.3594 61.0566 13.6354 60.6978 13.6354H54.2389Z" fill="#575756"/>
<path d="M54.2389 10.9304C53.88 10.9304 53.604 10.6543 53.604 10.2955C53.604 9.93668 53.88 9.63306 54.2389 9.63306H60.6978C61.0566 9.63306 61.3326 9.93668 61.3326 10.2955C61.3326 10.6543 61.0566 10.9304 60.6978 10.9304H54.2389Z" fill="#575756"/>
<path d="M54.2389 8.25313C53.88 8.25313 53.604 7.9495 53.604 7.59068C53.604 7.23185 53.88 6.92822 54.2389 6.92822H60.6978C61.0566 6.92822 61.3326 7.23185 61.3326 7.59068C61.3326 7.9495 61.0566 8.25313 60.6978 8.25313H54.2389Z" fill="#575756"/>
<path d="M54.2389 5.54804C53.88 5.54804 53.604 5.24441 53.604 4.88559C53.604 4.52676 53.88 4.25073 54.2389 4.25073H60.6978C61.0566 4.25073 61.3326 4.52676 61.3326 4.88559C61.3326 5.24441 61.0566 5.54804 60.6978 5.54804H54.2389Z" fill="#575756"/>
<path d="M37.8708 24.8696C37.8708 25.7253 37.1808 26.4154 36.3251 26.4154C35.4694 26.4154 34.7794 25.7253 34.7794 24.8696C34.7794 24.2072 35.1934 23.6275 35.7731 23.4067L28.5965 8.08746L27.5752 3.75391L36.7667 23.4067C37.4016 23.5999 37.8708 24.1796 37.8708 24.8696Z" fill="white"/>
<path d="M44.6881 3.69873L43.6669 8.00468L37.1527 21.9438C37.0975 22.0542 37.0147 22.1094 36.9043 22.1094C36.7939 22.1094 36.7111 22.0542 36.6835 21.9438L36.4627 21.5022C36.4259 21.4286 36.4259 21.355 36.4627 21.2814L44.6881 3.69873Z" fill="white"/>
<path d="M44.8261 10.1026H52.1683V13.5252H44.8261V10.1026ZM62.6847 10.1026H83L58.9308 37.8704L56.3362 35.607L75.4922 13.5528H62.6847V10.1026ZM48.2211 50.181L41.5138 57.9373L32.8743 47.9729L35.4689 45.7371L41.5138 52.6928L45.6265 47.9453L48.2211 50.181ZM19.846 32.9572L0 10.075H26.6362V13.5252H7.53542L22.4406 30.6938L19.846 32.9572Z" fill="#8B7556"/>
</svg>
