<svg width="20" height="23" viewBox="0 0 20 23" fill="none" xmlns="http://www.w3.org/2000/svg">
<path d="M13.7989 15.1964C16.2204 11.3559 15.916 11.835 15.9858 11.7349C16.8674 10.4781 17.3333 8.99884 17.3333 7.45703C17.3333 3.36824 14.0506 0 10 0C5.96258 0 2.66667 3.36159 2.66667 7.45703C2.66667 8.99785 3.1424 10.5158 4.05289 11.7896L6.20098 15.1964C3.90431 15.5532 0 16.6162 0 18.957C0 19.8103 0.551022 21.0264 3.17609 21.9739C5.00907 22.6356 7.43249 23 10 23C14.8011 23 20 21.6311 20 18.957C20 16.6158 16.1003 15.5539 13.7989 15.1964ZM5.16662 11.0483C5.15929 11.0367 5.15164 11.0254 5.14364 11.0143C4.386 9.96075 4 8.71219 4 7.45703C4 4.08708 6.68471 1.34766 10 1.34766C13.3084 1.34766 16 4.08829 16 7.45703C16 8.71422 15.6213 9.92041 14.9046 10.9462C14.8404 11.0318 15.1755 10.5057 10 18.714L5.16662 11.0483ZM10 21.6523C4.75582 21.6523 1.33333 20.0943 1.33333 18.957C1.33333 18.1926 3.09191 16.9358 6.9888 16.4459L9.43778 20.3299C9.56018 20.5241 9.77218 20.6416 9.99996 20.6416C10.2277 20.6416 10.4398 20.524 10.5621 20.3299L13.0111 16.4459C16.908 16.9358 18.6667 18.1926 18.6667 18.957C18.6667 20.0847 15.275 21.6523 10 21.6523Z" fill="#D5A353"/>
<path d="M10 4.08789C8.162 4.08789 6.66667 5.59929 6.66667 7.45703C6.66667 9.31478 8.162 10.8262 10 10.8262C11.838 10.8262 13.3333 9.31478 13.3333 7.45703C13.3333 5.59929 11.838 4.08789 10 4.08789ZM10 9.47852C8.8972 9.47852 8 8.57168 8 7.45703C8 6.34238 8.8972 5.43555 10 5.43555C11.1028 5.43555 12 6.34238 12 7.45703C12 8.57168 11.1028 9.47852 10 9.47852Z" fill="#D5A353"/>
</svg>
