<svg width="52" height="57" viewBox="0 0 52 57" fill="none" xmlns="http://www.w3.org/2000/svg">
<path d="M23.972 0.363748C25.112 -0.0597412 26.3576 -0.114951 27.5311 0.205996L28.028 0.363748L48.2502 7.89289C49.2756 8.27462 50.1705 8.9378 50.8309 9.80515C51.4912 10.6725 51.8896 11.7083 51.9798 12.7918L52 13.2651V28.6475C51.9999 33.2953 50.7359 37.8568 48.3415 41.8506C45.9471 45.8443 42.5111 49.1222 38.3962 51.3381L37.6278 51.7368L27.9384 56.5469C27.4049 56.8114 26.8222 56.9637 26.2267 56.9943C25.6312 57.0248 25.0357 56.9331 24.4776 56.7247L24.0616 56.5469L14.3722 51.7368C10.1851 49.6582 6.64091 46.4957 4.11379 42.5832C1.58667 38.6707 0.170388 34.1533 0.014445 29.508L0 28.6475V13.2651C1.6799e-05 12.1784 0.310922 11.1141 0.89652 10.196C1.48212 9.27793 2.31832 8.54388 3.30778 8.07932L3.74978 7.89289L23.972 0.363748ZM26 5.73597L5.77778 13.2651V28.6475C5.77785 32.2472 6.75264 35.7806 8.60009 38.8779C10.4475 41.9752 13.0997 44.5224 16.2789 46.2528L16.9578 46.6055L26 51.0943L35.0422 46.6055C38.2857 44.9957 41.0335 42.5496 42.9978 39.5235C44.9622 36.4973 46.0709 33.0024 46.2078 29.4047L46.2222 28.6475V13.2651L26 5.73597ZM35.9176 18.818C36.4374 18.3036 37.135 18.0049 37.8687 17.9827C38.6023 17.9605 39.3169 18.2163 39.8675 18.6983C40.418 19.1802 40.7631 19.8522 40.8327 20.5776C40.9023 21.3031 40.6912 22.0276 40.2422 22.6041L40.0024 22.8737L24.882 37.889C24.3312 38.4357 23.5974 38.7626 22.8198 38.8076C22.0423 38.8525 21.2752 38.6124 20.6642 38.1328L20.3869 37.889L13.442 30.9937C12.9184 30.4787 12.6128 29.7845 12.5878 29.0532C12.5628 28.3219 12.8203 27.6087 13.3076 27.0597C13.7948 26.5107 14.475 26.1673 15.2089 26.0999C15.9428 26.0325 16.6749 26.2461 17.2553 26.6971L17.5269 26.9351L22.6344 32.0062L35.9176 18.818Z" fill="#DFBA7E"/>
</svg>
