<svg width="24" height="24" viewBox="0 0 24 24" fill="none" xmlns="http://www.w3.org/2000/svg">
<path d="M22.5263 10.3955C22.4325 7.66134 21.3506 5.10456 19.451 3.16034C17.4598 1.12212 14.8135 0 12 0C6.31744 0 1.67427 4.62908 1.47412 10.3955C0.606946 10.79 0 11.6782 0 12.7107V15.5549C0 16.9516 1.11018 18.0882 2.47524 18.0882C3.35848 18.0882 4.07679 17.3531 4.07679 16.4491V11.8161C4.07679 10.9674 3.44076 10.2753 2.63214 10.1931C2.93064 5.16918 7.017 1.17499 12 1.17499C14.5074 1.17499 16.8651 2.1753 18.6397 3.99145C20.2692 5.65915 21.2228 7.83289 21.3663 10.1934C20.5585 10.2765 19.9236 10.9682 19.9236 11.8161V16.4487C19.9236 17.3045 20.5696 18.0009 21.3878 18.0733V19.244C21.3878 20.5624 20.3396 21.6347 19.0514 21.6347H17.3213C17.2363 21.3864 17.1032 21.1569 16.9164 20.9666C16.5892 20.6301 16.1529 20.4449 15.6884 20.4449H13.905C13.649 20.4449 13.4033 20.5005 13.1783 20.6078C12.5645 20.8965 12.168 21.5302 12.168 22.2222C12.168 22.6977 12.349 23.1442 12.677 23.4783C13.0049 23.8147 13.4412 24 13.905 24H15.6884C16.4277 24 17.0794 23.5108 17.3224 22.8097H19.0514C20.9729 22.8097 22.5358 21.2102 22.5358 19.244V17.8642C23.3976 17.4674 24 16.5823 24 15.5542V12.7099C24 11.6782 23.3931 10.79 22.5263 10.3955ZM2.92834 11.8161V16.4487C2.92834 16.7045 2.72513 16.9128 2.47485 16.9128C1.74315 16.9128 1.14769 16.3034 1.14769 15.5545V12.7103C1.14769 11.961 1.74315 11.352 2.47485 11.352C2.72513 11.352 2.92834 11.5604 2.92834 11.8161ZM16.2643 22.3484C16.2073 22.6249 15.9647 22.8258 15.688 22.8258H13.9046C13.7477 22.8258 13.6004 22.7631 13.4879 22.648C13.3769 22.5348 13.3157 22.3836 13.3157 22.223C13.3157 21.9884 13.45 21.7742 13.6605 21.6751C13.7355 21.639 13.8178 21.6206 13.9046 21.6206H15.688C15.8449 21.6206 15.9922 21.6829 16.1043 21.7981C16.2153 21.9113 16.2766 22.0624 16.2766 22.223C16.2769 22.2661 16.2723 22.3092 16.2643 22.3484ZM22.8519 15.5545C22.8519 16.3034 22.2565 16.9128 21.5248 16.9128C21.2749 16.9128 21.0713 16.7049 21.0713 16.4487V11.8161C21.0713 11.5604 21.2745 11.352 21.5248 11.352C22.2565 11.352 22.8519 11.9614 22.8519 12.7103V15.5545Z" fill="#D5A353"/>
<path d="M15.7171 15.757C17.0584 15.757 18.1494 14.64 18.1494 13.2676V8.19518C18.1494 7.5317 17.8961 6.9066 17.4361 6.43582C16.9761 5.96504 16.3657 5.70576 15.7171 5.70576H8.28294C6.94161 5.70576 5.85056 6.8224 5.85056 8.19518V13.2676C5.85056 14.6404 6.94161 15.757 8.28294 15.757H8.32848V17.0715C8.32848 17.5728 8.62047 18.0177 9.07204 18.2053C9.21785 18.2653 9.36939 18.295 9.51941 18.295C9.83206 18.295 10.1367 18.1681 10.3598 17.9319L12.4963 15.757H15.7171ZM11.8553 14.7528L9.54313 17.1063C9.5328 17.1173 9.52515 17.1255 9.50333 17.1157C9.47693 17.1048 9.47693 17.0871 9.47693 17.0715V15.1695C9.47693 14.8452 9.22014 14.582 8.90289 14.582H8.28332C7.57496 14.582 6.99901 13.9922 6.99901 13.2676V8.19518C6.99901 7.47021 7.57496 6.88075 8.28332 6.88075H15.7174C16.0596 6.88075 16.3814 7.01784 16.6248 7.26654C16.8682 7.51564 17.0018 7.84542 17.0018 8.19518V13.2676C17.0018 13.9926 16.4254 14.582 15.7174 14.582H12.2602C12.1083 14.582 11.9629 14.6435 11.8553 14.7528Z" fill="#D5A353"/>
<path d="M9.21134 9.95845C8.74446 9.95845 8.36445 10.3478 8.36445 10.8252C8.36445 11.3026 8.74484 11.692 9.21134 11.692C9.67861 11.692 10.059 11.3026 10.059 10.8252C10.059 10.3478 9.67899 9.95845 9.21134 9.95845Z" fill="#D5A353"/>
<path d="M11.9996 9.95845C11.5327 9.95845 11.1527 10.3478 11.1527 10.8252C11.1527 11.3026 11.5331 11.692 11.9996 11.692C12.4673 11.692 12.8473 11.3026 12.8473 10.8252C12.8473 10.3478 12.4673 9.95845 11.9996 9.95845Z" fill="#D5A353"/>
<path d="M14.7879 9.95845C14.321 9.95845 13.941 10.3478 13.941 10.8252C13.941 11.3026 14.3214 11.692 14.7879 11.692C15.2552 11.692 15.6356 11.3026 15.6356 10.8252C15.6356 10.3478 15.2552 9.95845 14.7879 9.95845Z" fill="#D5A353"/>
</svg>
