<svg width="19" height="19" viewBox="0 0 19 19" fill="none" xmlns="http://www.w3.org/2000/svg">
<path d="M9.51021 6.51889e-05C9.63513 0.00129454 9.75858 0.0272322 9.87351 0.0764388C9.98843 0.125645 10.0926 0.197147 10.1799 0.286822C10.2673 0.376497 10.3363 0.482651 10.3828 0.59911C10.4293 0.71557 10.4525 0.840056 10.451 0.965528V8.60168C10.451 8.85498 10.3507 9.09791 10.1724 9.27699C9.99404 9.45607 9.75218 9.55663 9.5 9.55663C9.24782 9.55663 9.00596 9.45607 8.82762 9.27699C8.64927 9.09791 8.54905 8.85498 8.54898 8.60168V0.965528C8.5475 0.83833 8.57135 0.712096 8.61913 0.594289C8.66692 0.476482 8.73766 0.36943 8.82722 0.279481C8.91677 0.189532 9.02333 0.118514 9.14062 0.0705218C9.25791 0.0225292 9.38356 -0.00142134 9.51021 6.51889e-05ZM3.96738 1.91423C3.99832 1.91333 4.02929 1.91395 4.06017 1.91609C4.248 1.93211 4.42686 2.00391 4.57397 2.12231C4.72108 2.24071 4.8298 2.40035 4.8863 2.58099C4.9428 2.76163 4.94453 2.95512 4.89126 3.13675C4.83799 3.31838 4.73214 3.47999 4.58717 3.60102C2.94139 5.00478 1.9002 7.09413 1.90019 9.44037C1.90018 13.6768 5.28703 17.0914 9.49536 17.0914C13.7037 17.0914 17.098 13.6768 17.098 9.44037C17.098 7.1077 16.07 5.03254 14.4407 3.62896C14.3457 3.54758 14.2677 3.44818 14.211 3.33651C14.1543 3.22483 14.1201 3.10305 14.1103 2.97809C14.1004 2.85313 14.1152 2.7275 14.1538 2.60827C14.1923 2.48905 14.2538 2.37861 14.3349 2.28327C14.4159 2.18794 14.5148 2.10956 14.626 2.05262C14.7372 1.99568 14.8584 1.96124 14.9829 1.95137C15.1073 1.94151 15.2324 1.95638 15.3511 1.99509C15.4698 2.0338 15.5798 2.0956 15.6747 2.17699C17.7086 3.9291 19 6.54072 19 9.44037C19 14.7066 14.7323 19 9.49536 19C4.25839 19 -9.53674e-06 14.7066 0 9.44037C9.53674e-06 6.5238 1.30418 3.90145 3.35873 2.14905C3.52769 2.00112 3.74327 1.91795 3.96738 1.91423Z" fill="#D5A353"/>
</svg>
