<svg width="22" height="13" viewBox="0 0 22 13" fill="none" xmlns="http://www.w3.org/2000/svg">
<path d="M20.0664 0H1.93359C0.86741 0 0 0.87477 0 1.95V4.55C0 4.90897 0.288578 5.2 0.644531 5.2H1.28906C1.99985 5.2 2.57812 5.78318 2.57812 6.5C2.57812 7.21682 1.99985 7.8 1.28906 7.8H0.644531C0.288578 7.8 0 8.09103 0 8.45V11.05C0 12.1252 0.86741 13 1.93359 13H20.0664C21.1326 13 22 12.1252 22 11.05V8.45C22 8.09103 21.7114 7.8 21.3555 7.8H20.7109C20.0001 7.8 19.4219 7.21682 19.4219 6.5C19.4219 5.78318 20.0001 5.2 20.7109 5.2H21.3555C21.7114 5.2 22 4.90897 22 4.55V1.95C22 0.87477 21.1326 0 20.0664 0ZM20.7109 3.9C19.2894 3.9 18.1328 5.06636 18.1328 6.5C18.1328 7.93364 19.2894 9.1 20.7109 9.1V11.05C20.7109 11.4084 20.4218 11.7 20.0664 11.7H1.93359C1.5782 11.7 1.28906 11.4084 1.28906 11.05V9.1C2.71064 9.1 3.86719 7.93364 3.86719 6.5C3.86719 5.06636 2.71064 3.9 1.28906 3.9V1.95C1.28906 1.59159 1.5782 1.3 1.93359 1.3H20.0664C20.4218 1.3 20.7109 1.59159 20.7109 1.95V3.9Z" fill="#D5A353"/>
<path d="M13.5781 6.5C12.5119 6.5 11.6445 7.37477 11.6445 8.45C11.6445 9.52523 12.5119 10.4 13.5781 10.4C14.6443 10.4 15.5117 9.52523 15.5117 8.45C15.5117 7.37477 14.6443 6.5 13.5781 6.5ZM13.5781 9.1C13.2227 9.1 12.9336 8.80841 12.9336 8.45C12.9336 8.09159 13.2227 7.8 13.5781 7.8C13.9335 7.8 14.2227 8.09159 14.2227 8.45C14.2227 8.80841 13.9335 9.1 13.5781 9.1Z" fill="#D5A353"/>
<path d="M10.3555 4.55C10.3555 3.47477 9.48806 2.6 8.42188 2.6C7.35569 2.6 6.48828 3.47477 6.48828 4.55C6.48828 5.62523 7.35569 6.5 8.42188 6.5C9.48806 6.5 10.3555 5.62523 10.3555 4.55ZM7.77734 4.55C7.77734 4.19159 8.06648 3.9 8.42188 3.9C8.77727 3.9 9.06641 4.19159 9.06641 4.55C9.06641 4.90841 8.77727 5.2 8.42188 5.2C8.06648 5.2 7.77734 4.90841 7.77734 4.55Z" fill="#D5A353"/>
<path d="M13.9808 2.74244C13.7028 2.51814 13.2972 2.56364 13.0749 2.84397L7.91862 9.34397C7.69626 9.62429 7.74134 10.0333 8.01926 10.2576C8.29602 10.4808 8.70186 10.4376 8.92517 10.156L14.0814 3.65603C14.3038 3.37575 14.2587 2.96669 13.9808 2.74244Z" fill="#D5A353"/>
</svg>
