<svg width="22" height="21" viewBox="0 0 22 21" fill="none" xmlns="http://www.w3.org/2000/svg">
<path d="M11.0002 3.84726L10.0143 2.81546C7.70009 0.393467 3.45671 1.22926 1.92491 4.27425C1.20577 5.70645 1.04351 7.77424 2.35668 10.4132C3.62172 12.9542 6.25355 15.9978 11.0002 19.313C15.7468 15.9978 18.3773 12.9542 19.6437 10.4132C20.9569 7.77284 20.796 5.70645 20.0755 4.27425C18.5437 1.22926 14.3003 0.392067 11.9861 2.81406L11.0002 3.84726ZM11.0002 21C-10.0833 6.81525 4.50862 -4.25592 10.7582 1.60026C10.8407 1.67726 10.9218 1.75706 11.0002 1.83966C11.0778 1.75714 11.1585 1.67774 11.2422 1.60166C17.4904 -4.25872 32.0837 6.81385 11.0002 21Z" fill="#D5A353"/>
</svg>
