<svg width="21" height="21" viewBox="0 0 21 21" fill="none" xmlns="http://www.w3.org/2000/svg">
<path fill-rule="evenodd" clip-rule="evenodd" d="M10.4677 1.83549e-05C10.5492 -0.00450946 12.2644 0.828607 15.7129 2.5537C18.5323 3.96185 20.8766 5.15719 20.9218 5.21153C20.9988 5.30661 21.0033 5.57828 20.9988 10.4864C20.9988 13.837 20.9807 15.6889 20.9535 15.7477C20.9218 15.8066 19.1297 16.7303 15.7491 18.4191C12.9115 19.8364 10.5492 21 10.4994 21C10.4496 21 8.08725 19.8364 5.2497 18.4191C1.86907 16.7303 0.0769352 15.8066 0.045256 15.7477C0.0181024 15.6889 0 13.8415 0 10.4819C0 6.02653 0.0090512 5.29756 0.0633584 5.22058C0.0995632 5.17078 2.42572 3.97544 5.23612 2.56729C8.04199 1.15914 10.3953 0.00454617 10.4632 1.83549e-05H10.4677ZM1.21739 5.42433C1.22191 5.43792 1.84644 5.75939 2.60675 6.13973L3.98705 6.82796C10.9655 3.12421 12.9885 2.04206 12.993 2.02848C12.993 2.01489 12.4318 1.72511 11.7485 1.38553C11.0651 1.04141 10.4994 0.76069 10.4903 0.765218C10.4858 0.765218 8.39499 1.80661 5.84255 3.08346C3.29464 4.3603 1.21286 5.41075 1.21739 5.42433ZM4.89217 7.16754C4.78356 7.22187 4.82429 7.24904 5.8335 7.75163L6.88344 8.27685C13.7035 4.65461 15.7355 3.57246 15.7989 3.53171C15.912 3.46379 15.8939 3.45474 14.8937 2.95215C14.3326 2.67143 13.8529 2.44051 13.8302 2.44051C13.8031 2.44051 11.8073 3.48643 9.39515 4.77233C6.97847 6.05823 4.95553 7.13585 4.89217 7.16754ZM7.78856 8.61644C7.67994 8.67077 7.7433 8.707 9.09193 9.38164L10.5039 10.088C17.6951 6.4929 19.7814 5.43792 19.7814 5.42433C19.7814 5.41075 19.098 5.06211 18.2653 4.64102C17.4326 4.22446 16.7357 3.88488 16.713 3.88488C16.6949 3.88488 14.7037 4.93533 12.2915 6.22123C9.87486 7.50713 7.85192 8.58475 7.78856 8.61644ZM0.728622 15.3402L10.1419 20.0492L10.1464 10.7219L7.25001 9.27297L7.24549 12.8047C7.05994 12.9948 6.97395 13.0311 6.87439 13.0311C6.74314 13.0311 6.63905 12.945 6.00095 12.3066L5.27685 11.5822C3.86486 11.5822 3.85129 11.5822 3.73815 11.469L3.62501 11.3558V7.46185L0.728622 6.01295V15.3402ZM10.8479 10.7219L10.866 20.0492L20.2792 15.3402C20.2792 8.10933 20.2747 6.01295 20.2702 6.01748C20.2611 6.01748 18.1386 7.07699 15.5545 8.37194L10.8479 10.7219ZM4.3491 10.8577H5.59364L6.52139 11.7859V8.91075L4.3491 7.81955V10.8577Z" fill="#D5A353"/>
</svg>
