<svg width="22" height="24" viewBox="0 0 22 24" fill="none" xmlns="http://www.w3.org/2000/svg">
<path d="M20.9393 12.3109C20.847 12.1133 20.847 11.8867 20.9393 11.6892L21.7944 9.85802C22.2705 8.83845 21.8933 7.62323 20.9356 7.09135L19.2156 6.13605C19.03 6.03302 18.9028 5.84965 18.8665 5.63313L18.5301 3.62555C18.3428 2.50778 17.355 1.75666 16.2818 1.91561L14.3538 2.20108C14.1457 2.23183 13.94 2.1618 13.789 2.00894L12.3896 0.591831C11.6104 -0.197254 10.3896 -0.1973 9.61046 0.591831L8.21099 2.00908C8.05999 2.16198 7.85422 2.23187 7.64617 2.20122L5.71824 1.91575C4.64463 1.75671 3.65722 2.50792 3.4699 3.62569L3.13351 5.63318C3.09719 5.84974 2.96997 6.03307 2.78445 6.13614L1.06443 7.09144C0.106757 7.62328 -0.270474 8.8386 0.205632 9.85816L1.06071 11.6893C1.15296 11.8868 1.15296 12.1134 1.06071 12.311L0.205587 14.1421C-0.270518 15.1616 0.106712 16.3769 1.06439 16.9087L2.7844 17.864C2.96997 17.9671 3.09719 18.1504 3.13351 18.367L3.4699 20.3745C3.64043 21.3921 4.47397 22.1057 5.43196 22.1056C5.52631 22.1056 5.62205 22.0987 5.71828 22.0844L7.64621 21.799C7.85413 21.7681 8.06003 21.8382 8.21103 21.9911L9.61046 23.4082C10.0001 23.8028 10.5 24 11 24C11.4999 24 12 23.8027 12.3895 23.4082L13.789 21.9911C13.94 21.8382 14.1458 21.7684 14.3538 21.799L16.2818 22.0844C17.3555 22.2434 18.3428 21.4923 18.5301 20.3745L18.8665 18.367C18.9029 18.1504 19.0301 17.9671 19.2156 17.864L20.9356 16.9087C21.8933 16.3769 22.2705 15.1616 21.7944 14.142L20.9393 12.3109ZM20.3158 15.6859L18.5958 16.6412C18.0474 16.9459 17.6713 17.4876 17.5641 18.1278L17.2277 20.1353C17.1643 20.5135 16.8303 20.7675 16.467 20.7138L14.539 20.4284C13.9242 20.3372 13.3158 20.5443 12.8696 20.9961L11.4701 22.4132C11.2065 22.6801 10.7935 22.6801 10.5299 22.4132L9.13042 20.9961C8.75328 20.6142 8.26024 20.4073 7.74554 20.4073C7.65123 20.4073 7.55616 20.4142 7.46096 20.4283L5.53303 20.7138C5.17004 20.7675 4.83575 20.5134 4.77234 20.1352L4.43591 18.1277C4.32861 17.4875 3.95255 16.9457 3.40412 16.6412L1.6841 15.6859C1.36007 15.5059 1.23245 15.0948 1.39352 14.7498L2.24865 12.9187C2.52127 12.3348 2.52127 11.6652 2.24865 11.0813L1.39352 9.25015C1.23245 8.9052 1.36007 8.49407 1.6841 8.31412L3.40412 7.35882C3.9525 7.05418 4.32861 6.5124 4.43586 5.87229L4.77225 3.86475C4.83566 3.48656 5.16963 3.2325 5.53294 3.28622L7.46087 3.57169C8.07548 3.66276 8.68409 3.45572 9.13033 3.0039L10.5298 1.58679C10.7934 1.31989 11.2064 1.31989 11.4701 1.58679L12.8695 3.0039C13.3157 3.45577 13.9243 3.66276 14.539 3.57169L16.4669 3.28622C16.8299 3.23246 17.1642 3.48656 17.2276 3.86475L17.564 5.87233C17.6713 6.51245 18.0473 7.05427 18.5957 7.35882L20.3158 8.31412C20.6398 8.49407 20.7674 8.9052 20.6063 9.25015L19.7512 11.0813C19.4786 11.6651 19.4786 12.3348 19.7512 12.9186L20.6063 14.7497C20.7675 15.0948 20.6398 15.506 20.3158 15.6859Z" fill="#D5A353"/>
<path d="M15.8311 6.94295C15.5729 6.67267 15.1542 6.67267 14.896 6.94295L6.16882 16.0783C5.91061 16.3486 5.91061 16.7868 6.16882 17.0571C6.29792 17.1922 6.46715 17.2598 6.63633 17.2598C6.80551 17.2598 6.97478 17.1923 7.10383 17.0571L15.831 7.92178C16.0893 7.65145 16.0893 7.21327 15.8311 6.94295Z" fill="#D5A353"/>
<path d="M8.35522 5.77108C7.01844 5.77108 5.93086 6.90952 5.93086 8.30882C5.93086 9.70812 7.01844 10.8466 8.35522 10.8466C9.69201 10.8466 10.7796 9.70812 10.7796 8.30882C10.7796 6.90952 9.69201 5.77108 8.35522 5.77108ZM8.35522 9.46231C7.7476 9.46231 7.25327 8.94486 7.25327 8.30877C7.25327 7.67273 7.7476 7.15529 8.35522 7.15529C8.96285 7.15529 9.45723 7.67273 9.45723 8.30877C9.45718 8.94486 8.96285 9.46231 8.35522 9.46231Z" fill="#D5A353"/>
<path d="M13.6447 13.1535C12.3079 13.1535 11.2203 14.292 11.2203 15.6913C11.2203 17.0906 12.3079 18.229 13.6447 18.229C14.9815 18.229 16.0691 17.0906 16.0691 15.6913C16.0691 14.292 14.9815 13.1535 13.6447 13.1535ZM13.6447 16.8448C13.0371 16.8448 12.5427 16.3273 12.5427 15.6913C12.5427 15.0552 13.037 14.5378 13.6447 14.5378C14.2523 14.5378 14.7466 15.0552 14.7466 15.6913C14.7466 16.3273 14.2523 16.8448 13.6447 16.8448Z" fill="#D5A353"/>
</svg>
