<svg width="21" height="19" viewBox="0 0 21 19" fill="none" xmlns="http://www.w3.org/2000/svg">
<path d="M20.4864 12.4202C20.182 12.1427 19.7902 11.9928 19.391 11.9696C19.7083 11.138 19.8695 10.2626 19.8695 9.35732C19.8695 7.75794 19.3639 6.23407 18.4073 4.95053C18.2721 4.76902 18.0132 4.72997 17.8291 4.86329C17.645 4.99661 17.6053 5.25173 17.7406 5.43319C18.5921 6.57582 19.0422 7.93277 19.0422 9.35732C19.0422 10.3501 18.8252 11.3024 18.3981 12.1904C18.2837 12.2537 18.1756 12.33 18.0769 12.42L15.2791 14.9665C15.2375 15.0044 15.048 15.1274 14.3493 15.1274C14.345 15.1274 14.3405 15.1274 14.3361 15.1274C13.2378 15.1244 11.5663 15.1215 10.3036 15.1192L9.70805 15.1182C9.38755 15.1182 9.12681 14.895 9.12681 14.6206C9.12681 14.3503 9.39301 14.1218 9.70805 14.1218H12.3591C13.205 14.1218 13.8932 13.4815 13.8932 12.6943C13.8932 12.621 13.8871 12.5489 13.8756 12.4785C14.5347 12.1865 14.9775 11.5378 14.9775 10.7955C14.9775 9.77773 14.1429 8.94968 13.1169 8.94968H11.5211C10.9449 8.94968 10.4762 8.48691 10.4762 7.91802C10.4762 7.34982 10.945 6.88753 11.5211 6.88753H14.5639C14.7924 6.88753 14.9775 6.70501 14.9775 6.47985C14.9775 6.25473 14.7924 6.07221 14.5639 6.07221H12.725L12.7275 5.09088C12.728 4.86568 12.5433 4.68276 12.3148 4.68219C12.3145 4.68219 12.3141 4.68219 12.3138 4.68219C12.0859 4.68219 11.9008 4.86406 11.9002 5.08882L11.8977 6.07221H11.5212C10.4888 6.07221 9.64894 6.90022 9.64894 7.91802C9.64894 8.93646 10.4889 9.76499 11.5212 9.76499H13.1169C13.6771 9.76499 14.1503 10.2369 14.1503 10.7955C14.1503 11.2133 13.8846 11.588 13.5046 11.7461C13.2234 11.4523 12.8142 11.2667 12.3592 11.2667H5.86783C5.67973 10.6484 5.58437 10.0076 5.58437 9.35736C5.58437 8.84009 5.64438 8.33018 5.76258 7.83483C5.81213 7.86688 5.86205 7.89777 5.91237 7.92744C6.14005 8.06185 6.3163 8.12907 6.49279 8.12907C6.66915 8.12907 6.84569 8.06193 7.07402 7.92764C7.89159 7.44607 8.60875 6.64599 9.20565 5.54957C9.6405 4.75035 9.9103 3.92371 10.0017 3.1253C10.7407 2.85793 11.5173 2.72211 12.3139 2.72211C13.2646 2.72211 14.1829 2.91348 15.0432 3.29083C15.0978 3.31481 15.1549 3.32616 15.2111 3.32616C15.3695 3.32616 15.5207 3.23598 15.5892 3.08415C15.6821 2.87847 15.5883 2.6375 15.3795 2.54594C14.4127 2.12185 13.3813 1.90683 12.3139 1.90683C11.5285 1.90683 10.7603 2.02455 10.0224 2.25654C9.96407 1.81354 9.73184 1.66635 9.38202 1.48081L6.68978 0.048903C6.56719 -0.016301 6.41949 -0.016301 6.2969 0.048903L3.60315 1.48149C3.2007 1.69497 2.95383 1.85732 2.94862 2.47823C2.94001 3.47222 3.22748 4.53428 3.77993 5.54961C4.15862 6.24523 4.58625 6.82119 5.05744 7.27281C4.85819 7.94575 4.75704 8.64565 4.75704 9.35732C4.75704 10.041 4.85089 10.7156 5.0364 11.3689C4.68182 11.4592 4.34607 11.6077 4.04567 11.8063C3.91298 11.1763 3.31628 10.6995 2.60212 10.6995H1.47127C0.660025 10.6995 0 11.3147 0 12.0709V17.5083C0 18.2639 0.660025 18.8786 1.47127 18.8786H2.60212C3.41337 18.8786 4.07339 18.2639 4.07339 17.5083V17.4997L6.69479 18.6584C6.70357 18.6623 6.71251 18.6658 6.72153 18.669C7.53385 18.963 8.57072 18.983 11.451 18.9977C13.6317 19 13.9165 19 14.3303 19C15.3717 19 15.9043 18.907 16.4977 18.3315C17.7322 17.2067 18.9669 16.0828 20.2024 14.9582L20.4859 14.7001C20.8174 14.3987 21 13.9938 21 13.56C21 13.1262 20.8175 12.7212 20.4864 12.4202ZM3.24615 17.5083C3.24615 17.8143 2.95727 18.0633 2.60216 18.0633H1.47127C1.11616 18.0633 0.827287 17.8143 0.827287 17.5083V12.0709C0.827287 11.7694 1.12219 11.5148 1.47127 11.5148H2.60212C2.9512 11.5148 3.24611 11.7695 3.24611 12.0709L3.24615 17.5083ZM4.50898 5.16417C4.02196 4.26914 3.76844 3.34274 3.77591 2.48502C3.77677 2.38097 3.7846 2.33497 3.78887 2.31742C3.82197 2.29135 3.9136 2.24272 3.99526 2.19938L6.49336 0.870806L8.97973 2.1932L8.98995 2.19862C9.07169 2.24199 9.16344 2.29066 9.19671 2.31686C9.20097 2.33452 9.20877 2.38085 9.20963 2.48567C9.21812 3.34096 8.9646 4.26716 8.47655 5.16409C7.95151 6.12857 7.33681 6.82285 6.64979 7.22757C6.55821 7.28146 6.51387 7.30228 6.49299 7.31028C6.47224 7.30224 6.42819 7.28146 6.33746 7.22794C6.33734 7.22786 6.33726 7.22778 6.33713 7.22774C5.6584 6.82794 5.02623 6.11434 4.50898 5.16417ZM19.9249 14.1011L19.6412 14.3593C18.404 15.4855 17.1676 16.6109 15.9313 17.7372C15.9279 17.7403 15.9246 17.7434 15.9213 17.7466C15.5728 18.086 15.3217 18.1847 14.3304 18.1847C13.9167 18.1847 13.632 18.1847 11.4537 18.1824C8.81743 18.1689 7.71075 18.1536 7.01967 17.9083L4.07347 16.606V12.8552C4.51042 12.3689 5.16412 12.082 5.8495 12.082H12.3592C12.6303 12.082 12.8658 12.2151 12.9843 12.4095C12.9866 12.4136 12.9887 12.4177 12.9911 12.4217C13.0386 12.5039 13.066 12.5963 13.066 12.6943C13.066 13.0319 12.7489 13.3065 12.3592 13.3065H9.70813C8.93146 13.3065 8.29961 13.896 8.29961 14.6206C8.29961 15.3445 8.9315 15.9335 9.70739 15.9335L10.3022 15.9346C11.5646 15.9368 13.2358 15.9397 14.3341 15.9426C14.3392 15.9427 14.3441 15.9427 14.3491 15.9427C15.0841 15.9426 15.5584 15.8225 15.8407 15.5652L18.6384 13.0187C18.987 12.701 19.5761 12.7009 19.9251 13.0191C20.0849 13.1644 20.1728 13.3565 20.1728 13.56C20.1728 13.7635 20.0848 13.9556 19.9249 14.1011Z" fill="#D5A353"/>
<path d="M16.8036 4.28737C16.9095 4.28737 17.0153 4.24759 17.0961 4.168C17.2576 4.00877 17.2576 3.75066 17.0961 3.59143L17.0949 3.5903C16.9334 3.43119 16.6721 3.43167 16.5105 3.5909C16.349 3.75009 16.3496 4.00877 16.5111 4.16804C16.5919 4.24759 16.6977 4.28737 16.8036 4.28737Z" fill="#D5A353"/>
<path d="M6.31195 5.02426C6.4197 5.02426 6.52724 4.98303 6.6082 4.90117L8.068 3.4252C8.22742 3.26395 8.2241 3.00584 8.06049 2.84872C7.89692 2.69155 7.63503 2.69482 7.47556 2.85607L6.29878 4.04596L5.89039 3.6692C5.72362 3.51535 5.4619 3.5238 5.30571 3.68828C5.1496 3.85265 5.15826 4.11063 5.32503 4.26449L6.02935 4.91427C6.10904 4.98776 6.2106 5.02426 6.31195 5.02426Z" fill="#D5A353"/>
</svg>
