<svg width="18" height="20" viewBox="0 0 18 20" fill="none" xmlns="http://www.w3.org/2000/svg">
<path d="M0 0V20H13.3236L18 15.9068V0L0 0ZM1.33884 1.17188H16.6612V14.8307H12.0942V18.8281H1.3388L1.33884 1.17188ZM15.997 16.0026L13.433 18.2469V16.0026H15.997Z" fill="#D5A353"/>
<path d="M6.14378 3.58074H11.8562V4.75262H6.14378V3.58074Z" fill="#D5A353"/>
<path d="M3.52558 6.49738H14.4743V7.66926H3.52558V6.49738Z" fill="#D5A353"/>
<path d="M3.52558 8.99738H14.4743V10.1693H3.52558V8.99738Z" fill="#D5A353"/>
<path d="M3.52558 11.4974H14.4743V12.6693H3.52558V11.4974Z" fill="#D5A353"/>
<path d="M3.52558 14.8307H4.93132V16.0026H3.52558V14.8307Z" fill="#D5A353"/>
<path d="M6.27021 14.8307H9.00002V16.0026H6.27021V14.8307Z" fill="#D5A353"/>
</svg>
