<svg width="23" height="23" viewBox="0 0 23 23" fill="none" xmlns="http://www.w3.org/2000/svg">
<path fill-rule="evenodd" clip-rule="evenodd" d="M8.5 0.75C8.5 0.335786 8.83579 0 9.25 0H13.75C14.1642 0 14.5 0.335786 14.5 0.75V3.28647L15.1019 3.58743L16.9697 1.71967C17.2626 1.42678 17.7374 1.42678 18.0303 1.71967L21.0303 4.71967C21.3232 5.01256 21.3232 5.48744 21.0303 5.78033L19.1626 7.64809L19.4635 8.25H22C22.4142 8.25 22.75 8.58579 22.75 9V13.5C22.75 13.9142 22.4142 14.25 22 14.25H19.4635L19.1626 14.8519L21.0303 16.7197C21.3232 17.0126 21.3232 17.4874 21.0303 17.7803L18.0303 20.7803C17.7374 21.0732 17.2626 21.0732 16.9697 20.7803L15.1019 18.9126L14.5 19.2135V21.75C14.5 22.1642 14.1642 22.5 13.75 22.5H9.25C8.83579 22.5 8.5 22.1642 8.5 21.75V19.2135L7.89809 18.9126L6.03033 20.7803C5.73744 21.0732 5.26256 21.0732 4.96967 20.7803L1.96967 17.7803C1.67678 17.4874 1.67678 17.0126 1.96967 16.7197L3.83743 14.8519L3.53647 14.25H1C0.585786 14.25 0.25 13.9142 0.25 13.5V9C0.25 8.58579 0.585786 8.25 1 8.25H3.53647L3.83743 7.64809L1.96967 5.78033C1.67678 5.48744 1.67678 5.01256 1.96967 4.71967L4.96967 1.71967C5.26256 1.42678 5.73744 1.42678 6.03033 1.71967L7.89809 3.58743L8.5 3.28647V0.75ZM10 1.5V3.75C10 4.03408 9.8395 4.29378 9.58541 4.42082L8.08541 5.17082C7.79667 5.31519 7.44794 5.2586 7.21967 5.03033L5.5 3.31066L3.56066 5.25L5.28033 6.96967C5.5086 7.19794 5.56519 7.54667 5.42082 7.83541L4.67082 9.33541C4.54378 9.5895 4.28408 9.75 4 9.75H1.75V12.75H4C4.28408 12.75 4.54378 12.9105 4.67082 13.1646L5.42082 14.6646C5.56519 14.9533 5.5086 15.3021 5.28033 15.5303L3.56066 17.25L5.5 19.1893L7.21967 17.4697C7.44794 17.2414 7.79667 17.1848 8.08541 17.3292L9.58541 18.0792C9.8395 18.2062 10 18.4659 10 18.75V21H13V18.75C13 18.4659 13.1605 18.2062 13.4146 18.0792L14.9146 17.3292C15.2033 17.1848 15.5521 17.2414 15.7803 17.4697L17.5 19.1893L19.4393 17.25L17.7197 15.5303C17.4914 15.3021 17.4348 14.9533 17.5792 14.6646L18.3292 13.1646C18.4562 12.9105 18.7159 12.75 19 12.75H21.25V9.75H19C18.7159 9.75 18.4562 9.5895 18.3292 9.33541L17.5792 7.83541C17.4348 7.54667 17.4914 7.19794 17.7197 6.96967L19.4393 5.25L17.5 3.31066L15.7803 5.03033C15.5521 5.2586 15.2033 5.31519 14.9146 5.17082L13.4146 4.42082C13.1605 4.29378 13 4.03408 13 3.75V1.5H10ZM11.5 9C10.2574 9 9.25 10.0074 9.25 11.25C9.25 12.4926 10.2574 13.5 11.5 13.5C12.7426 13.5 13.75 12.4926 13.75 11.25C13.75 10.0074 12.7426 9 11.5 9ZM7.75 11.25C7.75 9.17893 9.42893 7.5 11.5 7.5C13.5711 7.5 15.25 9.17893 15.25 11.25C15.25 13.3211 13.5711 15 11.5 15C9.42893 15 7.75 13.3211 7.75 11.25Z" fill="#D5A353"/>
</svg>
